<svg width="1400" height="383" viewBox="0 0 1400 383" fill="none" xmlns="http://www.w3.org/2000/svg">
<rect width="1400" height="383" rx="10" fill="#DEFBFF"/>
<path d="M1312 383C1312 335.504 1350.5 297 1398 297H1400V373C1400 378.523 1395.52 383 1390 383H1312Z" fill="#64BEF2" fill-opacity="0.22"/>
<path d="M1252 383C1252 302.919 1316.92 238 1397 238H1400V373C1400 378.523 1395.52 383 1390 383H1252Z" fill="#64BEF2" fill-opacity="0.2"/>
<path d="M1179 383C1179 275.304 1266.3 188 1374 188H1400V373C1400 378.523 1395.52 383 1390 383H1179Z" fill="#64BEF2" fill-opacity="0.15"/>
<path d="M1179 383C1179 275.304 1266.3 188 1374 188H1400V373C1400 378.523 1395.52 383 1390 383H1179Z" fill="#64BEF2" fill-opacity="0.15"/>
<path d="M88 0C88 47.4965 49.4965 86 2 86H0V10C0 4.47715 4.47715 0 10 0H88Z" fill="#64BEF2" fill-opacity="0.22"/>
<path d="M148 0C148 80.0813 83.0813 145 3 145H0V10C0 4.47714 4.47716 0 10 0H148Z" fill="#64BEF2" fill-opacity="0.2"/>
<path d="M221 -1.52588e-05C221 107.696 133.696 195 26 195H0V9.99998C0 4.47714 4.47716 -1.52588e-05 10 -1.52588e-05H221Z" fill="#64BEF2" fill-opacity="0.15"/>
<path d="M221 -1.52588e-05C221 107.696 133.696 195 26 195H0V9.99998C0 4.47714 4.47716 -1.52588e-05 10 -1.52588e-05H221Z" fill="#64BEF2" fill-opacity="0.15"/>
</svg>
