<svg width="111" height="112" viewBox="0 0 111 112" fill="none" xmlns="http://www.w3.org/2000/svg">
<g clip-path="url(#clip0_107_1364)">
<g clip-path="url(#clip1_107_1364)">
<circle cx="1.5" cy="1.50073" r="1.5" fill="#9ADCF4" fill-opacity="0.33"/>
<circle cx="10.5" cy="1.50073" r="1.5" fill="#9ADCF4" fill-opacity="0.33"/>
<circle cx="19.5" cy="1.50073" r="1.5" fill="#9ADCF4" fill-opacity="0.33"/>
<circle cx="28.5" cy="1.50073" r="1.5" fill="#9ADCF4" fill-opacity="0.33"/>
<circle cx="37.5" cy="1.50073" r="1.5" fill="#9ADCF4" fill-opacity="0.33"/>
<circle cx="46.5" cy="1.50073" r="1.5" fill="#9ADCF4" fill-opacity="0.33"/>
<circle cx="55.5" cy="1.50073" r="1.5" fill="#9ADCF4" fill-opacity="0.33"/>
<circle cx="64.5" cy="1.50073" r="1.5" fill="#9ADCF4" fill-opacity="0.33"/>
<circle cx="73.5" cy="1.50073" r="1.5" fill="#9ADCF4" fill-opacity="0.33"/>
<circle cx="82.5" cy="1.50073" r="1.5" fill="#9ADCF4" fill-opacity="0.33"/>
<circle cx="91.5" cy="1.50073" r="1.5" fill="#9ADCF4" fill-opacity="0.33"/>
</g>
<g clip-path="url(#clip2_107_1364)">
<circle cx="1.5" cy="10.5007" r="1.5" fill="#9ADCF4" fill-opacity="0.33"/>
<circle cx="10.5" cy="10.5007" r="1.5" fill="#9ADCF4" fill-opacity="0.33"/>
<circle cx="19.5" cy="10.5007" r="1.5" fill="#9ADCF4" fill-opacity="0.33"/>
<circle cx="28.5" cy="10.5007" r="1.5" fill="#9ADCF4" fill-opacity="0.33"/>
<circle cx="37.5" cy="10.5007" r="1.5" fill="#9ADCF4" fill-opacity="0.33"/>
<circle cx="46.5" cy="10.5007" r="1.5" fill="#9ADCF4" fill-opacity="0.33"/>
<circle cx="55.5" cy="10.5007" r="1.5" fill="#9ADCF4" fill-opacity="0.33"/>
<circle cx="64.5" cy="10.5007" r="1.5" fill="#9ADCF4" fill-opacity="0.33"/>
<circle cx="73.5" cy="10.5007" r="1.5" fill="#9ADCF4" fill-opacity="0.33"/>
<circle cx="82.5" cy="10.5007" r="1.5" fill="#9ADCF4" fill-opacity="0.33"/>
<circle cx="91.5" cy="10.5007" r="1.5" fill="#9ADCF4" fill-opacity="0.33"/>
</g>
<g clip-path="url(#clip3_107_1364)">
<circle cx="1.5" cy="19.5007" r="1.5" fill="#9ADCF4" fill-opacity="0.33"/>
<circle cx="10.5" cy="19.5007" r="1.5" fill="#9ADCF4" fill-opacity="0.33"/>
<circle cx="19.5" cy="19.5007" r="1.5" fill="#9ADCF4" fill-opacity="0.33"/>
<circle cx="28.5" cy="19.5007" r="1.5" fill="#9ADCF4" fill-opacity="0.33"/>
<circle cx="37.5" cy="19.5007" r="1.5" fill="#9ADCF4" fill-opacity="0.33"/>
<circle cx="46.5" cy="19.5007" r="1.5" fill="#9ADCF4" fill-opacity="0.33"/>
<circle cx="55.5" cy="19.5007" r="1.5" fill="#9ADCF4" fill-opacity="0.33"/>
<circle cx="64.5" cy="19.5007" r="1.5" fill="#9ADCF4" fill-opacity="0.33"/>
<circle cx="73.5" cy="19.5007" r="1.5" fill="#9ADCF4" fill-opacity="0.33"/>
<circle cx="82.5" cy="19.5007" r="1.5" fill="#9ADCF4" fill-opacity="0.33"/>
<circle cx="91.5" cy="19.5007" r="1.5" fill="#9ADCF4" fill-opacity="0.33"/>
</g>
<g clip-path="url(#clip4_107_1364)">
<circle cx="1.5" cy="28.5007" r="1.5" fill="#9ADCF4" fill-opacity="0.33"/>
<circle cx="10.5" cy="28.5007" r="1.5" fill="#9ADCF4" fill-opacity="0.33"/>
<circle cx="19.5" cy="28.5007" r="1.5" fill="#9ADCF4" fill-opacity="0.33"/>
<circle cx="28.5" cy="28.5007" r="1.5" fill="#9ADCF4" fill-opacity="0.33"/>
<circle cx="37.5" cy="28.5007" r="1.5" fill="#9ADCF4" fill-opacity="0.33"/>
<circle cx="46.5" cy="28.5007" r="1.5" fill="#9ADCF4" fill-opacity="0.33"/>
<circle cx="55.5" cy="28.5007" r="1.5" fill="#9ADCF4" fill-opacity="0.33"/>
<circle cx="64.5" cy="28.5007" r="1.5" fill="#9ADCF4" fill-opacity="0.33"/>
<circle cx="73.5" cy="28.5007" r="1.5" fill="#9ADCF4" fill-opacity="0.33"/>
<circle cx="82.5" cy="28.5007" r="1.5" fill="#9ADCF4" fill-opacity="0.33"/>
<circle cx="91.5" cy="28.5007" r="1.5" fill="#9ADCF4" fill-opacity="0.33"/>
</g>
<g clip-path="url(#clip5_107_1364)">
<circle cx="1.5" cy="37.5007" r="1.5" fill="#9ADCF4" fill-opacity="0.33"/>
<circle cx="10.5" cy="37.5007" r="1.5" fill="#9ADCF4" fill-opacity="0.33"/>
<circle cx="19.5" cy="37.5007" r="1.5" fill="#9ADCF4" fill-opacity="0.33"/>
<circle cx="28.5" cy="37.5007" r="1.5" fill="#9ADCF4" fill-opacity="0.33"/>
<circle cx="37.5" cy="37.5007" r="1.5" fill="#9ADCF4" fill-opacity="0.33"/>
<circle cx="46.5" cy="37.5007" r="1.5" fill="#9ADCF4" fill-opacity="0.33"/>
<circle cx="55.5" cy="37.5007" r="1.5" fill="#9ADCF4" fill-opacity="0.33"/>
<circle cx="64.5" cy="37.5007" r="1.5" fill="#9ADCF4" fill-opacity="0.33"/>
<circle cx="73.5" cy="37.5007" r="1.5" fill="#9ADCF4" fill-opacity="0.33"/>
<circle cx="82.5" cy="37.5007" r="1.5" fill="#9ADCF4" fill-opacity="0.33"/>
<circle cx="91.5" cy="37.5007" r="1.5" fill="#9ADCF4" fill-opacity="0.33"/>
</g>
<g clip-path="url(#clip6_107_1364)">
<circle cx="1.5" cy="46.5007" r="1.5" fill="#9ADCF4" fill-opacity="0.33"/>
<circle cx="10.5" cy="46.5007" r="1.5" fill="#9ADCF4" fill-opacity="0.33"/>
<circle cx="19.5" cy="46.5007" r="1.5" fill="#9ADCF4" fill-opacity="0.33"/>
<circle cx="28.5" cy="46.5007" r="1.5" fill="#9ADCF4" fill-opacity="0.33"/>
<circle cx="37.5" cy="46.5007" r="1.5" fill="#9ADCF4" fill-opacity="0.33"/>
<circle cx="46.5" cy="46.5007" r="1.5" fill="#9ADCF4" fill-opacity="0.33"/>
<circle cx="55.5" cy="46.5007" r="1.5" fill="#9ADCF4" fill-opacity="0.33"/>
<circle cx="64.5" cy="46.5007" r="1.5" fill="#9ADCF4" fill-opacity="0.33"/>
<circle cx="73.5" cy="46.5007" r="1.5" fill="#9ADCF4" fill-opacity="0.33"/>
<circle cx="82.5" cy="46.5007" r="1.5" fill="#9ADCF4" fill-opacity="0.33"/>
<circle cx="91.5" cy="46.5007" r="1.5" fill="#9ADCF4" fill-opacity="0.33"/>
</g>
<g clip-path="url(#clip7_107_1364)">
<circle cx="1.5" cy="55.5007" r="1.5" fill="#9ADCF4" fill-opacity="0.33"/>
<circle cx="10.5" cy="55.5007" r="1.5" fill="#9ADCF4" fill-opacity="0.33"/>
<circle cx="19.5" cy="55.5007" r="1.5" fill="#9ADCF4" fill-opacity="0.33"/>
<circle cx="28.5" cy="55.5007" r="1.5" fill="#9ADCF4" fill-opacity="0.33"/>
<circle cx="37.5" cy="55.5007" r="1.5" fill="#9ADCF4" fill-opacity="0.33"/>
<circle cx="46.5" cy="55.5007" r="1.5" fill="#9ADCF4" fill-opacity="0.33"/>
<circle cx="55.5" cy="55.5007" r="1.5" fill="#9ADCF4" fill-opacity="0.33"/>
<circle cx="64.5" cy="55.5007" r="1.5" fill="#9ADCF4" fill-opacity="0.33"/>
<circle cx="73.5" cy="55.5007" r="1.5" fill="#9ADCF4" fill-opacity="0.33"/>
<circle cx="82.5" cy="55.5007" r="1.5" fill="#9ADCF4" fill-opacity="0.33"/>
<circle cx="91.5" cy="55.5007" r="1.5" fill="#9ADCF4" fill-opacity="0.33"/>
</g>
<g clip-path="url(#clip8_107_1364)">
<circle cx="1.5" cy="64.5007" r="1.5" fill="#9ADCF4" fill-opacity="0.33"/>
<circle cx="10.5" cy="64.5007" r="1.5" fill="#9ADCF4" fill-opacity="0.33"/>
<circle cx="19.5" cy="64.5007" r="1.5" fill="#9ADCF4" fill-opacity="0.33"/>
<circle cx="28.5" cy="64.5007" r="1.5" fill="#9ADCF4" fill-opacity="0.33"/>
<circle cx="37.5" cy="64.5007" r="1.5" fill="#9ADCF4" fill-opacity="0.33"/>
<circle cx="46.5" cy="64.5007" r="1.5" fill="#9ADCF4" fill-opacity="0.33"/>
<circle cx="55.5" cy="64.5007" r="1.5" fill="#9ADCF4" fill-opacity="0.33"/>
<circle cx="64.5" cy="64.5007" r="1.5" fill="#9ADCF4" fill-opacity="0.33"/>
<circle cx="73.5" cy="64.5007" r="1.5" fill="#9ADCF4" fill-opacity="0.33"/>
<circle cx="82.5" cy="64.5007" r="1.5" fill="#9ADCF4" fill-opacity="0.33"/>
<circle cx="91.5" cy="64.5007" r="1.5" fill="#9ADCF4" fill-opacity="0.33"/>
</g>
<g clip-path="url(#clip9_107_1364)">
<circle cx="1.5" cy="73.5007" r="1.5" fill="#9ADCF4" fill-opacity="0.33"/>
<circle cx="10.5" cy="73.5007" r="1.5" fill="#9ADCF4" fill-opacity="0.33"/>
<circle cx="19.5" cy="73.5007" r="1.5" fill="#9ADCF4" fill-opacity="0.33"/>
<circle cx="28.5" cy="73.5007" r="1.5" fill="#9ADCF4" fill-opacity="0.33"/>
<circle cx="37.5" cy="73.5007" r="1.5" fill="#9ADCF4" fill-opacity="0.33"/>
<circle cx="46.5" cy="73.5007" r="1.5" fill="#9ADCF4" fill-opacity="0.33"/>
<circle cx="55.5" cy="73.5007" r="1.5" fill="#9ADCF4" fill-opacity="0.33"/>
<circle cx="64.5" cy="73.5007" r="1.5" fill="#9ADCF4" fill-opacity="0.33"/>
<circle cx="73.5" cy="73.5007" r="1.5" fill="#9ADCF4" fill-opacity="0.33"/>
<circle cx="82.5" cy="73.5007" r="1.5" fill="#9ADCF4" fill-opacity="0.33"/>
<circle cx="91.5" cy="73.5007" r="1.5" fill="#9ADCF4" fill-opacity="0.33"/>
</g>
<g clip-path="url(#clip10_107_1364)">
<circle cx="1.5" cy="82.5007" r="1.5" fill="#9ADCF4" fill-opacity="0.33"/>
<circle cx="10.5" cy="82.5007" r="1.5" fill="#9ADCF4" fill-opacity="0.33"/>
<circle cx="19.5" cy="82.5007" r="1.5" fill="#9ADCF4" fill-opacity="0.33"/>
<circle cx="28.5" cy="82.5007" r="1.5" fill="#9ADCF4" fill-opacity="0.33"/>
<circle cx="37.5" cy="82.5007" r="1.5" fill="#9ADCF4" fill-opacity="0.33"/>
<circle cx="46.5" cy="82.5007" r="1.5" fill="#9ADCF4" fill-opacity="0.33"/>
<circle cx="55.5" cy="82.5007" r="1.5" fill="#9ADCF4" fill-opacity="0.33"/>
<circle cx="64.5" cy="82.5007" r="1.5" fill="#9ADCF4" fill-opacity="0.33"/>
<circle cx="73.5" cy="82.5007" r="1.5" fill="#9ADCF4" fill-opacity="0.33"/>
<circle cx="82.5" cy="82.5007" r="1.5" fill="#9ADCF4" fill-opacity="0.33"/>
<circle cx="91.5" cy="82.5007" r="1.5" fill="#9ADCF4" fill-opacity="0.33"/>
</g>
<g clip-path="url(#clip11_107_1364)">
<circle cx="1.5" cy="91.5007" r="1.5" fill="#9ADCF4" fill-opacity="0.33"/>
<circle cx="10.5" cy="91.5007" r="1.5" fill="#9ADCF4" fill-opacity="0.33"/>
<circle cx="19.5" cy="91.5007" r="1.5" fill="#9ADCF4" fill-opacity="0.33"/>
<circle cx="28.5" cy="91.5007" r="1.5" fill="#9ADCF4" fill-opacity="0.33"/>
<circle cx="37.5" cy="91.5007" r="1.5" fill="#9ADCF4" fill-opacity="0.33"/>
<circle cx="46.5" cy="91.5007" r="1.5" fill="#9ADCF4" fill-opacity="0.33"/>
<circle cx="55.5" cy="91.5007" r="1.5" fill="#9ADCF4" fill-opacity="0.33"/>
<circle cx="64.5" cy="91.5007" r="1.5" fill="#9ADCF4" fill-opacity="0.33"/>
<circle cx="73.5" cy="91.5007" r="1.5" fill="#9ADCF4" fill-opacity="0.33"/>
<circle cx="82.5" cy="91.5007" r="1.5" fill="#9ADCF4" fill-opacity="0.33"/>
<circle cx="91.5" cy="91.5007" r="1.5" fill="#9ADCF4" fill-opacity="0.33"/>
</g>
</g>
<defs>
<clipPath id="clip0_107_1364">
<rect width="111" height="112" fill="white" transform="translate(0 0.000732422)"/>
</clipPath>
<clipPath id="clip1_107_1364">
<rect width="100" height="9" fill="white" transform="translate(0 0.000732422)"/>
</clipPath>
<clipPath id="clip2_107_1364">
<rect width="100" height="9" fill="white" transform="translate(0 9.00073)"/>
</clipPath>
<clipPath id="clip3_107_1364">
<rect width="100" height="9" fill="white" transform="translate(0 18.0007)"/>
</clipPath>
<clipPath id="clip4_107_1364">
<rect width="100" height="9" fill="white" transform="translate(0 27.0007)"/>
</clipPath>
<clipPath id="clip5_107_1364">
<rect width="100" height="9" fill="white" transform="translate(0 36.0007)"/>
</clipPath>
<clipPath id="clip6_107_1364">
<rect width="100" height="9" fill="white" transform="translate(0 45.0007)"/>
</clipPath>
<clipPath id="clip7_107_1364">
<rect width="100" height="9" fill="white" transform="translate(0 54.0007)"/>
</clipPath>
<clipPath id="clip8_107_1364">
<rect width="100" height="9" fill="white" transform="translate(0 63.0007)"/>
</clipPath>
<clipPath id="clip9_107_1364">
<rect width="100" height="9" fill="white" transform="translate(0 72.0007)"/>
</clipPath>
<clipPath id="clip10_107_1364">
<rect width="100" height="9" fill="white" transform="translate(0 81.0007)"/>
</clipPath>
<clipPath id="clip11_107_1364">
<rect width="100" height="9" fill="white" transform="translate(0 90.0007)"/>
</clipPath>
</defs>
</svg>
