<svg width="1397" height="632" viewBox="0 0 1397 632" fill="none" xmlns="http://www.w3.org/2000/svg">
<rect width="1397" height="632" rx="20" fill="#DDF7FC"/>
<g clip-path="url(#clip0_379_911)">
<g filter="url(#filter0_f_379_911)">
<path fill-rule="evenodd" clip-rule="evenodd" d="M548.182 148.867C580.468 84.5273 619.805 6.13659 856.553 -54.1469C1121.74 -121.67 1237.14 -231.516 1261.69 -278H1473.47C1545.55 -242.983 1620.45 -168.47 1506.12 -91.4778H1513.79C1593.65 -52.6723 1619.83 9.456 1317.31 91.5482C939.968 193.945 927.16 212.078 759.488 449.469L758.415 450.989C623.461 642.057 653.779 512.391 705.62 395.174C709.932 387.343 714.769 376.765 720.506 364.217C755.368 287.966 823.497 138.954 1009.6 91.5482C1099.02 68.7693 1167.6 40.0991 1218.73 11.6072C1119.89 35.1862 1040.73 48.361 974.46 59.3905L974.458 59.3909C780.119 91.7338 696.598 105.634 552.639 309.368C387.514 543.057 473.095 314.751 536.525 171.386C540.529 164.12 544.305 156.595 548.182 148.867ZM1678.13 149.836C1461.4 205.044 1346.18 329.662 1315.66 385.07C1263.82 502.287 1193.87 688.953 1328.83 497.886C1456.26 317.467 1583.33 290.119 1800.88 243.299C1871.32 228.14 1951.24 210.94 2043.73 185.841C2346.25 103.75 2262.17 5.61564 2182.32 -33.1899H2009.24C1989.17 4.81521 1894.86 94.6282 1678.13 149.836ZM1011.69 330.139C1031.46 294.259 1106.08 213.563 1246.46 177.813C1386.83 142.063 1447.92 83.9042 1460.92 59.2937H1573.02C1624.74 84.4223 1679.19 147.969 1483.26 201.128C1423.35 217.38 1371.59 228.519 1325.96 238.335C1185.06 268.653 1102.75 286.363 1020.22 403.193C932.809 526.92 978.11 406.043 1011.69 330.139Z" fill="url(#paint0_linear_379_911)"/>
</g>
</g>
<path d="M602.353 5H553V48.4166M602.353 5V48.4166M602.353 5H651.706M553 48.4166H602.353M553 48.4166V91.8332M602.353 48.4166H651.706M602.353 48.4166V91.8332M651.706 5V48.4166M651.706 5H701.059M651.706 48.4166H701.059M651.706 48.4166V91.8332M602.353 91.8332H553M602.353 91.8332H651.706M602.353 91.8332V135.25M553 91.8332V135.25M701.059 5V48.4166M701.059 5H750.412M701.059 48.4166H750.412M701.059 48.4166V91.8332M651.706 91.8332H701.059M651.706 91.8332V135.25M750.412 5V48.4166M750.412 5H799.764M750.412 48.4166H799.764M750.412 48.4166V91.8332M701.059 91.8332H750.412M701.059 91.8332V135.25M799.764 5V48.4166M799.764 5H849.118M799.764 48.4166H849.118M799.764 48.4166V91.8332M750.412 91.8332H799.764M750.412 91.8332V135.25M849.118 5V48.4166M849.118 5H898.471M849.118 48.4166H898.471M849.118 48.4166V91.8332M799.764 91.8332H849.118M799.764 91.8332V135.25M898.471 5V48.4166M898.471 5H947.823M898.471 48.4166H947.823M898.471 48.4166V91.8332M849.118 91.8332H898.471M849.118 91.8332V135.25M947.823 5V48.4166M947.823 5H997.176M947.823 48.4166H997.176M947.823 48.4166V91.8332M898.471 91.8332H947.823M898.471 91.8332V135.25M997.176 5V48.4166M997.176 5H1046.53M997.176 48.4166H1046.53M997.176 48.4166V91.8332M947.823 91.8332H997.176M947.823 91.8332V135.25M1046.53 5V48.4166M1046.53 5H1095.88M1046.53 48.4166H1095.88M1046.53 48.4166V91.8332M997.176 91.8332H1046.53M997.176 91.8332V135.25M1095.88 5V48.4166M1095.88 5H1145.24M1095.88 48.4166H1145.24M1095.88 48.4166V91.8332M1046.53 91.8332H1095.88M1046.53 91.8332V135.25M1145.24 5V48.4166M1145.24 5H1194.59M1145.24 48.4166H1194.59M1145.24 48.4166V91.8332M1095.88 91.8332H1145.24M1095.88 91.8332V135.25M1194.59 5V48.4166M1194.59 5H1243.94M1194.59 48.4166H1243.94M1194.59 48.4166V91.8332M1145.24 91.8332H1194.59M1145.24 91.8332V135.25M1243.94 5V48.4166M1243.94 5H1293.29M1243.94 48.4166H1293.29M1243.94 48.4166V91.8332M1194.59 91.8332H1243.94M1194.59 91.8332V135.25M1293.29 5V48.4166M1293.29 5H1342.65M1293.29 48.4166H1342.65M1293.29 48.4166V91.8332M1243.94 91.8332H1293.29M1243.94 91.8332V135.25M1342.65 5V48.4166M1342.65 5H1392V48.4166M1342.65 48.4166H1392M1342.65 48.4166V91.8332M1293.29 91.8332H1342.65M1293.29 91.8332V135.25M1392 48.4166V91.8332M1342.65 91.8332H1392M1342.65 91.8332V135.25M1392 91.8332V135.25M602.353 135.25H553M602.353 135.25H651.706M602.353 135.25V178.666M553 135.25V178.666M651.706 135.25H701.059M651.706 135.25V178.666M701.059 135.25H750.412M701.059 135.25V178.666M750.412 135.25H799.764M750.412 135.25V178.666M799.764 135.25H849.118M799.764 135.25V178.666M849.118 135.25H898.471M849.118 135.25V178.666M898.471 135.25H947.823M898.471 135.25V178.666M947.823 135.25H997.176M947.823 135.25V178.666M997.176 135.25H1046.53M997.176 135.25V178.666M1046.53 135.25H1095.88M1046.53 135.25V178.666M1095.88 135.25H1145.24M1095.88 135.25V178.666M1145.24 135.25H1194.59M1145.24 135.25V178.666M1194.59 135.25H1243.94M1194.59 135.25V178.666M1243.94 135.25H1293.29M1243.94 135.25V178.666M1293.29 135.25H1342.65M1293.29 135.25V178.666M1342.65 135.25H1392M1342.65 135.25V178.666M1392 135.25V178.666M602.353 178.666H553M602.353 178.666H651.706M602.353 178.666V222.084M553 178.666V222.084M651.706 178.666H701.059M651.706 178.666V222.084M701.059 178.666H750.412M701.059 178.666V222.084M750.412 178.666H799.764M750.412 178.666V222.084M799.764 178.666H849.118M799.764 178.666V222.084M849.118 178.666H898.471M849.118 178.666V222.084M898.471 178.666H947.823M898.471 178.666V222.084M947.823 178.666H997.176M947.823 178.666V222.084M997.176 178.666H1046.53M997.176 178.666V222.084M1046.53 178.666H1095.88M1046.53 178.666V222.084M1095.88 178.666H1145.24M1095.88 178.666V222.084M1145.24 178.666H1194.59M1145.24 178.666V222.084M1194.59 178.666H1243.94M1194.59 178.666V222.084M1243.94 178.666H1293.29M1243.94 178.666V222.084M1293.29 178.666H1342.65M1293.29 178.666V222.084M1342.65 178.666H1392M1342.65 178.666V222.084M1392 178.666V222.084M602.353 222.084H553M602.353 222.084H651.706M602.353 222.084V265.5M553 222.084V265.5M651.706 222.084H701.059M651.706 222.084V265.5M701.059 222.084H750.412M701.059 222.084V265.5M750.412 222.084H799.764M750.412 222.084V265.5M799.764 222.084H849.118M799.764 222.084V265.5M849.118 222.084H898.471M849.118 222.084V265.5M898.471 222.084H947.823M898.471 222.084V265.5M947.823 222.084H997.176M947.823 222.084V265.5M997.176 222.084H1046.53M997.176 222.084V265.5M1046.53 222.084H1095.88M1046.53 222.084V265.5M1095.88 222.084H1145.24M1095.88 222.084V265.5M1145.24 222.084H1194.59M1145.24 222.084V265.5M1194.59 222.084H1243.94M1194.59 222.084V265.5M1243.94 222.084H1293.29M1243.94 222.084V265.5M1293.29 222.084H1342.65M1293.29 222.084V265.5M1342.65 222.084H1392M1342.65 222.084V265.5M1392 222.084V265.5M602.353 265.5H553M602.353 265.5H651.706M602.353 265.5V308.917M553 265.5V308.917M651.706 265.5H701.059M651.706 265.5V308.917M701.059 265.5H750.412M701.059 265.5V308.917M750.412 265.5H799.764M750.412 265.5V308.917M799.764 265.5H849.118M799.764 265.5V308.917M849.118 265.5H898.471M849.118 265.5V308.917M898.471 265.5H947.823M898.471 265.5V308.917M947.823 265.5H997.176M947.823 265.5V308.917M997.176 265.5H1046.53M997.176 265.5V308.917M1046.53 265.5H1095.88M1046.53 265.5V308.917M1095.88 265.5H1145.24M1095.88 265.5V308.917M1145.24 265.5H1194.59M1145.24 265.5V308.917M1194.59 265.5H1243.94M1194.59 265.5V308.917M1243.94 265.5H1293.29M1243.94 265.5V308.917M1293.29 265.5H1342.65M1293.29 265.5V308.917M1342.65 265.5H1392M1342.65 265.5V308.917M1392 265.5V308.917M602.353 308.917H553M602.353 308.917H651.706M602.353 308.917V352.334M553 308.917V352.334M651.706 308.917H701.059M651.706 308.917V352.334M701.059 308.917H750.412M701.059 308.917V352.334M750.412 308.917H799.764M750.412 308.917V352.334M799.764 308.917H849.118M799.764 308.917V352.334M849.118 308.917H898.471M849.118 308.917V352.334M898.471 308.917H947.823M898.471 308.917V352.334M947.823 308.917H997.176M947.823 308.917V352.334M997.176 308.917H1046.53M997.176 308.917V352.334M1046.53 308.917H1095.88M1046.53 308.917V352.334M1095.88 308.917H1145.24M1095.88 308.917V352.334M1145.24 308.917H1194.59M1145.24 308.917V352.334M1194.59 308.917H1243.94M1194.59 308.917V352.334M1243.94 308.917H1293.29M1243.94 308.917V352.334M1293.29 308.917H1342.65M1293.29 308.917V352.334M1342.65 308.917H1392M1342.65 308.917V352.334M1392 308.917V352.334M602.353 352.334H553M602.353 352.334H651.706M602.353 352.334V395.75M553 352.334V395.75M651.706 352.334H701.059M651.706 352.334V395.75M701.059 352.334H750.412M701.059 352.334V395.75M750.412 352.334H799.764M750.412 352.334V395.75M799.764 352.334H849.118M799.764 352.334V395.75M849.118 352.334H898.471M849.118 352.334V395.75M898.471 352.334H947.823M898.471 352.334V395.75M947.823 352.334H997.176M947.823 352.334V395.75M997.176 352.334H1046.53M997.176 352.334V395.75M1046.53 352.334H1095.88M1046.53 352.334V395.75M1095.88 352.334H1145.24M1095.88 352.334V395.75M1145.24 352.334H1194.59M1145.24 352.334V395.75M1194.59 352.334H1243.94M1194.59 352.334V395.75M1243.94 352.334H1293.29M1243.94 352.334V395.75M1293.29 352.334H1342.65M1293.29 352.334V395.75M1342.65 352.334H1392M1342.65 352.334V395.75M1392 352.334V395.75M602.353 395.75H553M602.353 395.75H651.706M602.353 395.75V439.167M553 395.75V439.167M651.706 395.75H701.059M651.706 395.75V439.167M701.059 395.75H750.412M701.059 395.75V439.167M750.412 395.75H799.764M750.412 395.75V439.167M799.764 395.75H849.118M799.764 395.75V439.167M849.118 395.75H898.471M849.118 395.75V439.167M898.471 395.75H947.823M898.471 395.75V439.167M947.823 395.75H997.176M947.823 395.75V439.167M997.176 395.75H1046.53M997.176 395.75V439.167M1046.53 395.75H1095.88M1046.53 395.75V439.167M1095.88 395.75H1145.24M1095.88 395.75V439.167M1145.24 395.75H1194.59M1145.24 395.75V439.167M1194.59 395.75H1243.94M1194.59 395.75V439.167M1243.94 395.75H1293.29M1243.94 395.75V439.167M1293.29 395.75H1342.65M1293.29 395.75V439.167M1342.65 395.75H1392M1342.65 395.75V439.167M1392 395.75V439.167M602.353 439.167H553M602.353 439.167H651.706M602.353 439.167V482.583M553 439.167V482.583M651.706 439.167H701.059M651.706 439.167V482.583M701.059 439.167H750.412M701.059 439.167V482.583M750.412 439.167H799.764M750.412 439.167V482.583M799.764 439.167H849.118M799.764 439.167V482.583M849.118 439.167H898.471M849.118 439.167V482.583M898.471 439.167H947.823M898.471 439.167V482.583M947.823 439.167H997.176M947.823 439.167V482.583M997.176 439.167H1046.53M997.176 439.167V482.583M1046.53 439.167H1095.88M1046.53 439.167V482.583M1095.88 439.167H1145.24M1095.88 439.167V482.583M1145.24 439.167H1194.59M1145.24 439.167V482.583M1194.59 439.167H1243.94M1194.59 439.167V482.583M1243.94 439.167H1293.29M1243.94 439.167V482.583M1293.29 439.167H1342.65M1293.29 439.167V482.583M1342.65 439.167H1392M1342.65 439.167V482.583M1392 439.167V482.583M602.353 482.583H553M602.353 482.583H651.706M602.353 482.583V526M553 482.583V526H602.353M651.706 482.583H701.059M651.706 482.583V526M701.059 482.583H750.412M701.059 482.583V526M750.412 482.583H799.764M750.412 482.583V526M799.764 482.583H849.118M799.764 482.583V526M849.118 482.583H898.471M849.118 482.583V526M898.471 482.583H947.823M898.471 482.583V526M947.823 482.583H997.176M947.823 482.583V526M997.176 482.583H1046.53M997.176 482.583V526M1046.53 482.583H1095.88M1046.53 482.583V526M1095.88 482.583H1145.24M1095.88 482.583V526M1145.24 482.583H1194.59M1145.24 482.583V526M1194.59 482.583H1243.94M1194.59 482.583V526M1243.94 482.583H1293.29M1243.94 482.583V526M1293.29 482.583H1342.65M1293.29 482.583V526M1342.65 482.583H1392M1342.65 482.583V526M1392 482.583V526H1342.65M602.353 526H651.706M651.706 526H701.059M701.059 526H750.412M750.412 526H799.764M799.764 526H849.118M849.118 526H898.471M898.471 526H947.823M947.823 526H997.176M997.176 526H1046.53M1046.53 526H1095.88M1095.88 526H1145.24M1145.24 526H1194.59M1194.59 526H1243.94M1243.94 526H1293.29M1293.29 526H1342.65" stroke="url(#paint1_radial_379_911)" stroke-opacity="0.7" stroke-width="0.946738"/>
<path d="M38 321H9V346.5M38 321V346.5M38 321H66.9999M9 346.5H38M9 346.5V372M38 346.5H66.9999M38 346.5V372M66.9999 321V346.5M66.9999 321H96M66.9999 346.5H96M66.9999 346.5V372M38 372H9M38 372H66.9999M38 372V397.5M9 372V397.5M96 321V346.5M96 321H125M96 346.5H125M96 346.5V372M66.9999 372H96M66.9999 372V397.5M125 321V346.5M125 321H154M125 346.5H154M125 346.5V372M96 372H125M96 372V397.5M154 321V346.5M154 321H183M154 346.5H183M154 346.5V372M125 372H154M125 372V397.5M183 321V346.5M183 321H212M183 346.5H212M183 346.5V372M154 372H183M154 372V397.5M212 321V346.5M212 321H241M212 346.5H241M212 346.5V372M183 372H212M183 372V397.5M241 321V346.5M241 321H270M241 346.5H270M241 346.5V372M212 372H241M212 372V397.5M270 321V346.5M270 321H299M270 346.5H299M270 346.5V372M241 372H270M241 372V397.5M299 321V346.5M299 321H328M299 346.5H328M299 346.5V372M270 372H299M270 372V397.5M328 321V346.5M328 321H357M328 346.5H357M328 346.5V372M299 372H328M299 372V397.5M357 321V346.5M357 321H386M357 346.5H386M357 346.5V372M328 372H357M328 372V397.5M386 321V346.5M386 321H415M386 346.5H415M386 346.5V372M357 372H386M357 372V397.5M415 321V346.5M415 321H444M415 346.5H444M415 346.5V372M386 372H415M386 372V397.5M444 321V346.5M444 321H473M444 346.5H473M444 346.5V372M415 372H444M415 372V397.5M473 321V346.5M473 321H502V346.5M473 346.5H502M473 346.5V372M444 372H473M444 372V397.5M502 346.5V372M473 372H502M473 372V397.5M502 372V397.5M38 397.5H9M38 397.5H66.9999M38 397.5V423M9 397.5V423M66.9999 397.5H96M66.9999 397.5V423M96 397.5H125M96 397.5V423M125 397.5H154M125 397.5V423M154 397.5H183M154 397.5V423M183 397.5H212M183 397.5V423M212 397.5H241M212 397.5V423M241 397.5H270M241 397.5V423M270 397.5H299M270 397.5V423M299 397.5H328M299 397.5V423M328 397.5H357M328 397.5V423M357 397.5H386M357 397.5V423M386 397.5H415M386 397.5V423M415 397.5H444M415 397.5V423M444 397.5H473M444 397.5V423M473 397.5H502M473 397.5V423M502 397.5V423M38 423H9M38 423H66.9999M38 423V448.5M9 423V448.5M66.9999 423H96M66.9999 423V448.5M96 423H125M96 423V448.5M125 423H154M125 423V448.5M154 423H183M154 423V448.5M183 423H212M183 423V448.5M212 423H241M212 423V448.5M241 423H270M241 423V448.5M270 423H299M270 423V448.5M299 423H328M299 423V448.5M328 423H357M328 423V448.5M357 423H386M357 423V448.5M386 423H415M386 423V448.5M415 423H444M415 423V448.5M444 423H473M444 423V448.5M473 423H502M473 423V448.5M502 423V448.5M38 448.5H9M38 448.5H66.9999M38 448.5V474M9 448.5V474M66.9999 448.5H96M66.9999 448.5V474M96 448.5H125M96 448.5V474M125 448.5H154M125 448.5V474M154 448.5H183M154 448.5V474M183 448.5H212M183 448.5V474M212 448.5H241M212 448.5V474M241 448.5H270M241 448.5V474M270 448.5H299M270 448.5V474M299 448.5H328M299 448.5V474M328 448.5H357M328 448.5V474M357 448.5H386M357 448.5V474M386 448.5H415M386 448.5V474M415 448.5H444M415 448.5V474M444 448.5H473M444 448.5V474M473 448.5H502M473 448.5V474M502 448.5V474M38 474H9M38 474H66.9999M38 474V499.5M9 474V499.5M66.9999 474H96M66.9999 474V499.5M96 474H125M96 474V499.5M125 474H154M125 474V499.5M154 474H183M154 474V499.5M183 474H212M183 474V499.5M212 474H241M212 474V499.5M241 474H270M241 474V499.5M270 474H299M270 474V499.5M299 474H328M299 474V499.5M328 474H357M328 474V499.5M357 474H386M357 474V499.5M386 474H415M386 474V499.5M415 474H444M415 474V499.5M444 474H473M444 474V499.5M473 474H502M473 474V499.5M502 474V499.5M38 499.5H9M38 499.5H66.9999M38 499.5V525M9 499.5V525M66.9999 499.5H96M66.9999 499.5V525M96 499.5H125M96 499.5V525M125 499.5H154M125 499.5V525M154 499.5H183M154 499.5V525M183 499.5H212M183 499.5V525M212 499.5H241M212 499.5V525M241 499.5H270M241 499.5V525M270 499.5H299M270 499.5V525M299 499.5H328M299 499.5V525M328 499.5H357M328 499.5V525M357 499.5H386M357 499.5V525M386 499.5H415M386 499.5V525M415 499.5H444M415 499.5V525M444 499.5H473M444 499.5V525M473 499.5H502M473 499.5V525M502 499.5V525M38 525H9M38 525H66.9999M38 525V550.5M9 525V550.5M66.9999 525H96M66.9999 525V550.5M96 525H125M96 525V550.5M125 525H154M125 525V550.5M154 525H183M154 525V550.5M183 525H212M183 525V550.5M212 525H241M212 525V550.5M241 525H270M241 525V550.5M270 525H299M270 525V550.5M299 525H328M299 525V550.5M328 525H357M328 525V550.5M357 525H386M357 525V550.5M386 525H415M386 525V550.5M415 525H444M415 525V550.5M444 525H473M444 525V550.5M473 525H502M473 525V550.5M502 525V550.5M38 550.5H9M38 550.5H66.9999M38 550.5V576M9 550.5V576M66.9999 550.5H96M66.9999 550.5V576M96 550.5H125M96 550.5V576M125 550.5H154M125 550.5V576M154 550.5H183M154 550.5V576M183 550.5H212M183 550.5V576M212 550.5H241M212 550.5V576M241 550.5H270M241 550.5V576M270 550.5H299M270 550.5V576M299 550.5H328M299 550.5V576M328 550.5H357M328 550.5V576M357 550.5H386M357 550.5V576M386 550.5H415M386 550.5V576M415 550.5H444M415 550.5V576M444 550.5H473M444 550.5V576M473 550.5H502M473 550.5V576M502 550.5V576M38 576H9M38 576H66.9999M38 576V601.5M9 576V601.5M66.9999 576H96M66.9999 576V601.5M96 576H125M96 576V601.5M125 576H154M125 576V601.5M154 576H183M154 576V601.5M183 576H212M183 576V601.5M212 576H241M212 576V601.5M241 576H270M241 576V601.5M270 576H299M270 576V601.5M299 576H328M299 576V601.5M328 576H357M328 576V601.5M357 576H386M357 576V601.5M386 576H415M386 576V601.5M415 576H444M415 576V601.5M444 576H473M444 576V601.5M473 576H502M473 576V601.5M502 576V601.5M38 601.5H9M38 601.5H66.9999M38 601.5V627M9 601.5V627H38M66.9999 601.5H96M66.9999 601.5V627M96 601.5H125M96 601.5V627M125 601.5H154M125 601.5V627M154 601.5H183M154 601.5V627M183 601.5H212M183 601.5V627M212 601.5H241M212 601.5V627M241 601.5H270M241 601.5V627M270 601.5H299M270 601.5V627M299 601.5H328M299 601.5V627M328 601.5H357M328 601.5V627M357 601.5H386M357 601.5V627M386 601.5H415M386 601.5V627M415 601.5H444M415 601.5V627M444 601.5H473M444 601.5V627M473 601.5H502M473 601.5V627M502 601.5V627H473M38 627H66.9999M66.9999 627H96M96 627H125M125 627H154M154 627H183M183 627H212M212 627H241M241 627H270M270 627H299M299 627H328M328 627H357M357 627H386M386 627H415M415 627H444M444 627H473" stroke="url(#paint2_radial_379_911)" stroke-opacity="0.7" stroke-width="0.946738"/>
<defs>
<filter id="filter0_f_379_911" x="347.947" y="-387.053" width="2018.27" height="1076.11" filterUnits="userSpaceOnUse" color-interpolation-filters="sRGB">
<feFlood flood-opacity="0" result="BackgroundImageFix"/>
<feBlend mode="normal" in="SourceGraphic" in2="BackgroundImageFix" result="shape"/>
<feGaussianBlur stdDeviation="54.5264" result="effect1_foregroundBlur_379_911"/>
</filter>
<linearGradient id="paint0_linear_379_911" x1="323.585" y1="736.989" x2="1492.06" y2="38.2159" gradientUnits="userSpaceOnUse">
<stop stop-color="#529FF9"/>
<stop offset="0.525" stop-color="#74D9EC"/>
<stop offset="1" stop-color="#C0F7FF"/>
</linearGradient>
<radialGradient id="paint1_radial_379_911" cx="0" cy="0" r="1" gradientUnits="userSpaceOnUse" gradientTransform="translate(646.222 -18.2582) rotate(48.5966) scale(751.551 1226.76)">
<stop offset="0.123834" stop-color="white" stop-opacity="0"/>
<stop offset="0.515437" stop-color="white" stop-opacity="0.7"/>
<stop offset="1" stop-color="white" stop-opacity="0"/>
</radialGradient>
<radialGradient id="paint2_radial_379_911" cx="0" cy="0" r="1" gradientUnits="userSpaceOnUse" gradientTransform="translate(63.7778 307.34) rotate(48.5834) scale(441.5 720.703)">
<stop offset="0.123834" stop-color="white" stop-opacity="0"/>
<stop offset="0.515437" stop-color="white" stop-opacity="0.7"/>
<stop offset="1" stop-color="white" stop-opacity="0"/>
</radialGradient>
<clipPath id="clip0_379_911">
<path d="M1397 20C1397 8.95432 1388.05 0 1377 0H407C395.954 0 387 8.95431 387 20V632H1397V20Z" fill="white"/>
</clipPath>
</defs>
</svg>
