<svg width="1010" height="632" viewBox="0 0 1010 632" fill="none" xmlns="http://www.w3.org/2000/svg">
<g clip-path="url(#clip0_18_190)">
<g filter="url(#filter0_f_18_190)">
<path fill-rule="evenodd" clip-rule="evenodd" d="M161.182 148.867C193.469 84.5273 232.805 6.1366 469.553 -54.1469C734.735 -121.67 850.138 -231.516 874.692 -278H1086.47C1158.55 -242.983 1233.45 -168.47 1119.12 -91.4778H1126.79C1206.65 -52.6723 1232.83 9.45599 930.31 91.5482C552.968 193.945 540.16 212.078 372.488 449.469L371.415 450.989C236.461 642.057 266.779 512.391 318.62 395.174C322.932 387.343 327.769 376.765 333.506 364.217C368.368 287.966 436.497 138.954 622.598 91.5482C712.022 68.7693 780.605 40.0991 831.731 11.6072C732.893 35.1862 653.733 48.361 587.46 59.3905L587.458 59.3909C393.119 91.7338 309.598 105.634 165.639 309.368C0.513794 543.057 86.0947 314.751 149.526 171.386C153.529 164.12 157.305 156.595 161.182 148.867ZM1291.13 149.836C1074.4 205.044 959.177 329.662 928.658 385.07C876.817 502.287 806.873 688.953 941.827 497.886C1069.26 317.467 1196.33 290.119 1413.88 243.299C1484.32 228.14 1564.24 210.94 1656.73 185.841C1959.25 103.75 1875.17 5.61563 1795.32 -33.1899H1622.24C1602.17 4.81522 1507.86 94.6282 1291.13 149.836ZM624.688 330.139C644.455 294.259 719.083 213.563 859.456 177.813C999.83 142.063 1060.92 83.9042 1073.92 59.2937H1186.02C1237.74 84.4223 1292.19 147.969 1096.26 201.128C1036.35 217.38 984.586 228.518 938.964 238.335C798.059 268.653 715.754 286.363 633.217 403.193C545.809 526.92 591.11 406.043 624.688 330.139Z" fill="url(#paint0_linear_18_190)"/>
</g>
</g>
<defs>
<filter id="filter0_f_18_190" x="-39.0527" y="-387.053" width="2018.27" height="1076.11" filterUnits="userSpaceOnUse" color-interpolation-filters="sRGB">
<feFlood flood-opacity="0" result="BackgroundImageFix"/>
<feBlend mode="normal" in="SourceGraphic" in2="BackgroundImageFix" result="shape"/>
<feGaussianBlur stdDeviation="54.5264" result="effect1_foregroundBlur_18_190"/>
</filter>
<linearGradient id="paint0_linear_18_190" x1="-63.4154" y1="736.989" x2="1105.06" y2="38.2159" gradientUnits="userSpaceOnUse">
<stop stop-color="#529FF9"/>
<stop offset="0.525" stop-color="#74D9EC"/>
<stop offset="1" stop-color="#C0F7FF"/>
</linearGradient>
<clipPath id="clip0_18_190">
<path d="M1010 20C1010 8.95432 1001.05 0 990 0H20C8.95428 0 0 8.95431 0 20V632H1010V20Z" fill="white"/>
</clipPath>
</defs>
</svg>
