<svg width="1410" height="659" viewBox="0 0 1410 659" fill="none" xmlns="http://www.w3.org/2000/svg">
<rect x="7" y="1" width="1397" height="632" rx="20" fill="#DDF7FC"/>
<g clip-path="url(#clip0_379_911)">
<g filter="url(#filter0_f_379_911)">
<path fill-rule="evenodd" clip-rule="evenodd" d="M438.364 154.814C475.094 88.336 519.845 7.34053 789.175 -54.9461C1090.85 -124.713 1222.14 -238.209 1250.07 -286.237H1490.99C1573 -250.057 1658.2 -173.068 1528.14 -93.5174H1536.87C1627.71 -53.4225 1657.49 10.7702 1313.34 95.5902C884.069 201.389 869.499 220.125 678.751 465.404L677.53 466.975C524.003 664.391 558.494 530.416 617.469 409.304C622.375 401.214 627.877 390.284 634.404 377.319C674.064 298.535 751.569 144.572 963.282 95.5902C1065.01 72.0544 1143.03 42.4315 1201.2 12.9929C1088.76 37.3554 998.701 50.968 923.308 62.364L923.305 62.3644C702.221 95.7819 607.206 110.144 443.434 320.648C255.584 562.102 352.943 326.209 425.103 178.081C429.658 170.573 433.954 162.798 438.364 154.814ZM1723.81 155.815C1477.26 212.857 1346.18 341.616 1311.46 398.865C1252.49 519.976 1172.92 712.846 1326.44 515.43C1471.41 329.016 1615.98 300.759 1863.47 252.384C1943.6 236.721 2034.52 218.949 2139.74 193.017C2483.89 108.197 2388.24 6.80227 2297.4 -33.2927H2100.5C2077.67 5.97524 1970.37 98.7725 1723.81 155.815ZM965.66 342.109C988.147 305.037 1073.05 221.659 1232.74 184.721C1392.43 147.783 1461.93 87.6922 1476.71 62.264H1604.24C1663.08 88.2275 1725.03 153.886 1502.13 208.811C1433.98 225.603 1375.09 237.112 1323.19 247.254C1162.89 278.58 1069.26 296.878 975.363 417.59C875.925 545.428 927.461 420.535 965.66 342.109Z" fill="url(#paint0_linear_379_911)"/>
</g>
</g>
<path d="M-65 352H-94V377.5M-65 352V377.5M-65 352H-36.0001M-94 377.5H-65M-94 377.5V403M-65 377.5H-36.0001M-65 377.5V403M-36.0001 352V377.5M-36.0001 352H-7M-36.0001 377.5H-7M-36.0001 377.5V403M-65 403H-94M-65 403H-36.0001M-65 403V428.5M-94 403V428.5M-7 352V377.5M-7 352H21.9999M-7 377.5H21.9999M-7 377.5V403M-36.0001 403H-7M-36.0001 403V428.5M21.9999 352V377.5M21.9999 352H50.9997M21.9999 377.5H50.9997M21.9999 377.5V403M-7 403H21.9999M-7 403V428.5M50.9997 352V377.5M50.9997 352H80.0002M50.9997 377.5H80.0002M50.9997 377.5V403M21.9999 403H50.9997M21.9999 403V428.5M80.0002 352V377.5M80.0002 352H109M80.0002 377.5H109M80.0002 377.5V403M50.9997 403H80.0002M50.9997 403V428.5M109 352V377.5M109 352H138M109 377.5H138M109 377.5V403M80.0002 403H109M80.0002 403V428.5M138 352V377.5M138 352H167M138 377.5H167M138 377.5V403M109 403H138M109 403V428.5M167 352V377.5M167 352H196M167 377.5H196M167 377.5V403M138 403H167M138 403V428.5M196 352V377.5M196 352H225M196 377.5H225M196 377.5V403M167 403H196M167 403V428.5M225 352V377.5M225 352H254M225 377.5H254M225 377.5V403M196 403H225M196 403V428.5M254 352V377.5M254 352H283M254 377.5H283M254 377.5V403M225 403H254M225 403V428.5M283 352V377.5M283 352H312M283 377.5H312M283 377.5V403M254 403H283M254 403V428.5M312 352V377.5M312 352H341M312 377.5H341M312 377.5V403M283 403H312M283 403V428.5M341 352V377.5M341 352H370M341 377.5H370M341 377.5V403M312 403H341M312 403V428.5M370 352V377.5M370 352H399V377.5M370 377.5H399M370 377.5V403M341 403H370M341 403V428.5M399 377.5V403M370 403H399M370 403V428.5M399 403V428.5M-65 428.5H-94M-65 428.5H-36.0001M-65 428.5V454M-94 428.5V454M-36.0001 428.5H-7M-36.0001 428.5V454M-7 428.5H21.9999M-7 428.5V454M21.9999 428.5H50.9997M21.9999 428.5V454M50.9997 428.5H80.0002M50.9997 428.5V454M80.0002 428.5H109M80.0002 428.5V454M109 428.5H138M109 428.5V454M138 428.5H167M138 428.5V454M167 428.5H196M167 428.5V454M196 428.5H225M196 428.5V454M225 428.5H254M225 428.5V454M254 428.5H283M254 428.5V454M283 428.5H312M283 428.5V454M312 428.5H341M312 428.5V454M341 428.5H370M341 428.5V454M370 428.5H399M370 428.5V454M399 428.5V454M-65 454H-94M-65 454H-36.0001M-65 454V479.5M-94 454V479.5M-36.0001 454H-7M-36.0001 454V479.5M-7 454H21.9999M-7 454V479.5M21.9999 454H50.9997M21.9999 454V479.5M50.9997 454H80.0002M50.9997 454V479.5M80.0002 454H109M80.0002 454V479.5M109 454H138M109 454V479.5M138 454H167M138 454V479.5M167 454H196M167 454V479.5M196 454H225M196 454V479.5M225 454H254M225 454V479.5M254 454H283M254 454V479.5M283 454H312M283 454V479.5M312 454H341M312 454V479.5M341 454H370M341 454V479.5M370 454H399M370 454V479.5M399 454V479.5M-65 479.5H-94M-65 479.5H-36.0001M-65 479.5V505M-94 479.5V505M-36.0001 479.5H-7M-36.0001 479.5V505M-7 479.5H21.9999M-7 479.5V505M21.9999 479.5H50.9997M21.9999 479.5V505M50.9997 479.5H80.0002M50.9997 479.5V505M80.0002 479.5H109M80.0002 479.5V505M109 479.5H138M109 479.5V505M138 479.5H167M138 479.5V505M167 479.5H196M167 479.5V505M196 479.5H225M196 479.5V505M225 479.5H254M225 479.5V505M254 479.5H283M254 479.5V505M283 479.5H312M283 479.5V505M312 479.5H341M312 479.5V505M341 479.5H370M341 479.5V505M370 479.5H399M370 479.5V505M399 479.5V505M-65 505H-94M-65 505H-36.0001M-65 505V530.5M-94 505V530.5M-36.0001 505H-7M-36.0001 505V530.5M-7 505H21.9999M-7 505V530.5M21.9999 505H50.9997M21.9999 505V530.5M50.9997 505H80.0002M50.9997 505V530.5M80.0002 505H109M80.0002 505V530.5M109 505H138M109 505V530.5M138 505H167M138 505V530.5M167 505H196M167 505V530.5M196 505H225M196 505V530.5M225 505H254M225 505V530.5M254 505H283M254 505V530.5M283 505H312M283 505V530.5M312 505H341M312 505V530.5M341 505H370M341 505V530.5M370 505H399M370 505V530.5M399 505V530.5M-65 530.5H-94M-65 530.5H-36.0001M-65 530.5V556M-94 530.5V556M-36.0001 530.5H-7M-36.0001 530.5V556M-7 530.5H21.9999M-7 530.5V556M21.9999 530.5H50.9997M21.9999 530.5V556M50.9997 530.5H80.0002M50.9997 530.5V556M80.0002 530.5H109M80.0002 530.5V556M109 530.5H138M109 530.5V556M138 530.5H167M138 530.5V556M167 530.5H196M167 530.5V556M196 530.5H225M196 530.5V556M225 530.5H254M225 530.5V556M254 530.5H283M254 530.5V556M283 530.5H312M283 530.5V556M312 530.5H341M312 530.5V556M341 530.5H370M341 530.5V556M370 530.5H399M370 530.5V556M399 530.5V556M-65 556H-94M-65 556H-36.0001M-65 556V581.5M-94 556V581.5M-36.0001 556H-7M-36.0001 556V581.5M-7 556H21.9999M-7 556V581.5M21.9999 556H50.9997M21.9999 556V581.5M50.9997 556H80.0002M50.9997 556V581.5M80.0002 556H109M80.0002 556V581.5M109 556H138M109 556V581.5M138 556H167M138 556V581.5M167 556H196M167 556V581.5M196 556H225M196 556V581.5M225 556H254M225 556V581.5M254 556H283M254 556V581.5M283 556H312M283 556V581.5M312 556H341M312 556V581.5M341 556H370M341 556V581.5M370 556H399M370 556V581.5M399 556V581.5M-65 581.5H-94M-65 581.5H-36.0001M-65 581.5V607M-94 581.5V607M-36.0001 581.5H-7M-36.0001 581.5V607M-7 581.5H21.9999M-7 581.5V607M21.9999 581.5H50.9997M21.9999 581.5V607M50.9997 581.5H80.0002M50.9997 581.5V607M80.0002 581.5H109M80.0002 581.5V607M109 581.5H138M109 581.5V607M138 581.5H167M138 581.5V607M167 581.5H196M167 581.5V607M196 581.5H225M196 581.5V607M225 581.5H254M225 581.5V607M254 581.5H283M254 581.5V607M283 581.5H312M283 581.5V607M312 581.5H341M312 581.5V607M341 581.5H370M341 581.5V607M370 581.5H399M370 581.5V607M399 581.5V607M-65 607H-94M-65 607H-36.0001M-65 607V632.5M-94 607V632.5M-36.0001 607H-7M-36.0001 607V632.5M-7 607H21.9999M-7 607V632.5M21.9999 607H50.9997M21.9999 607V632.5M50.9997 607H80.0002M50.9997 607V632.5M80.0002 607H109M80.0002 607V632.5M109 607H138M109 607V632.5M138 607H167M138 607V632.5M167 607H196M167 607V632.5M196 607H225M196 607V632.5M225 607H254M225 607V632.5M254 607H283M254 607V632.5M283 607H312M283 607V632.5M312 607H341M312 607V632.5M341 607H370M341 607V632.5M370 607H399M370 607V632.5M399 607V632.5M-65 632.5H-94M-65 632.5H-36.0001M-65 632.5V658M-94 632.5V658H-65M-36.0001 632.5H-7M-36.0001 632.5V658M-7 632.5H21.9999M-7 632.5V658M21.9999 632.5H50.9997M21.9999 632.5V658M50.9997 632.5H80.0002M50.9997 632.5V658M80.0002 632.5H109M80.0002 632.5V658M109 632.5H138M109 632.5V658M138 632.5H167M138 632.5V658M167 632.5H196M167 632.5V658M196 632.5H225M196 632.5V658M225 632.5H254M225 632.5V658M254 632.5H283M254 632.5V658M283 632.5H312M283 632.5V658M312 632.5H341M312 632.5V658M341 632.5H370M341 632.5V658M370 632.5H399M370 632.5V658M399 632.5V658H370M-65 658H-36.0001M-36.0001 658H-7M-7 658H21.9999M21.9999 658H50.9997M50.9997 658H80.0002M80.0002 658H109M109 658H138M138 658H167M167 658H196M196 658H225M225 658H254M254 658H283M283 658H312M312 658H341M341 658H370" stroke="url(#paint1_radial_379_911)" stroke-opacity="0.7" stroke-width="0.946738"/>
<path d="M609.941 1H560V53.6666M609.941 1V53.6666M609.941 1H659.882M560 53.6666H609.941M560 53.6666V106.333M609.941 53.6666H659.882M609.941 53.6666V106.333M659.882 1V53.6666M659.882 1H709.824M659.882 53.6666H709.824M659.882 53.6666V106.333M609.941 106.333H560M609.941 106.333H659.882M609.941 106.333V159M560 106.333V159M709.824 1V53.6666M709.824 1H759.764M709.824 53.6666H759.764M709.824 53.6666V106.333M659.882 106.333H709.824M659.882 106.333V159M759.764 1V53.6666M759.764 1H809.705M759.764 53.6666H809.705M759.764 53.6666V106.333M709.824 106.333H759.764M709.824 106.333V159M809.705 1V53.6666M809.705 1H859.647M809.705 53.6666H859.647M809.705 53.6666V106.333M759.764 106.333H809.705M759.764 106.333V159M859.647 1V53.6666M859.647 1H909.588M859.647 53.6666H909.588M859.647 53.6666V106.333M809.705 106.333H859.647M809.705 106.333V159M909.588 1V53.6666M909.588 1H959.529M909.588 53.6666H959.529M909.588 53.6666V106.333M859.647 106.333H909.588M859.647 106.333V159M959.529 1V53.6666M959.529 1H1009.47M959.529 53.6666H1009.47M959.529 53.6666V106.333M909.588 106.333H959.529M909.588 106.333V159M1009.47 1V53.6666M1009.47 1H1059.41M1009.47 53.6666H1059.41M1009.47 53.6666V106.333M959.529 106.333H1009.47M959.529 106.333V159M1059.41 1V53.6666M1059.41 1H1109.35M1059.41 53.6666H1109.35M1059.41 53.6666V106.333M1009.47 106.333H1059.41M1009.47 106.333V159M1109.35 1V53.6666M1109.35 1H1159.29M1109.35 53.6666H1159.29M1109.35 53.6666V106.333M1059.41 106.333H1109.35M1059.41 106.333V159M1159.29 1V53.6666M1159.29 1H1209.24M1159.29 53.6666H1209.24M1159.29 53.6666V106.333M1109.35 106.333H1159.29M1109.35 106.333V159M1209.24 1V53.6666M1209.24 1H1259.18M1209.24 53.6666H1259.18M1209.24 53.6666V106.333M1159.29 106.333H1209.24M1159.29 106.333V159M1259.18 1V53.6666M1259.18 1H1309.12M1259.18 53.6666H1309.12M1259.18 53.6666V106.333M1209.24 106.333H1259.18M1209.24 106.333V159M1309.12 1V53.6666M1309.12 1H1359.06M1309.12 53.6666H1359.06M1309.12 53.6666V106.333M1259.18 106.333H1309.12M1259.18 106.333V159M1359.06 1V53.6666M1359.06 1H1409V53.6666M1359.06 53.6666H1409M1359.06 53.6666V106.333M1309.12 106.333H1359.06M1309.12 106.333V159M1409 53.6666V106.333M1359.06 106.333H1409M1359.06 106.333V159M1409 106.333V159M609.941 159H560M609.941 159H659.882M609.941 159V211.666M560 159V211.666M659.882 159H709.824M659.882 159V211.666M709.824 159H759.764M709.824 159V211.666M759.764 159H809.705M759.764 159V211.666M809.705 159H859.647M809.705 159V211.666M859.647 159H909.588M859.647 159V211.666M909.588 159H959.529M909.588 159V211.666M959.529 159H1009.47M959.529 159V211.666M1009.47 159H1059.41M1009.47 159V211.666M1059.41 159H1109.35M1059.41 159V211.666M1109.35 159H1159.29M1109.35 159V211.666M1159.29 159H1209.24M1159.29 159V211.666M1209.24 159H1259.18M1209.24 159V211.666M1259.18 159H1309.12M1259.18 159V211.666M1309.12 159H1359.06M1309.12 159V211.666M1359.06 159H1409M1359.06 159V211.666M1409 159V211.666M609.941 211.666H560M609.941 211.666H659.882M609.941 211.666V264.334M560 211.666V264.334M659.882 211.666H709.824M659.882 211.666V264.334M709.824 211.666H759.764M709.824 211.666V264.334M759.764 211.666H809.705M759.764 211.666V264.334M809.705 211.666H859.647M809.705 211.666V264.334M859.647 211.666H909.588M859.647 211.666V264.334M909.588 211.666H959.529M909.588 211.666V264.334M959.529 211.666H1009.47M959.529 211.666V264.334M1009.47 211.666H1059.41M1009.47 211.666V264.334M1059.41 211.666H1109.35M1059.41 211.666V264.334M1109.35 211.666H1159.29M1109.35 211.666V264.334M1159.29 211.666H1209.24M1159.29 211.666V264.334M1209.24 211.666H1259.18M1209.24 211.666V264.334M1259.18 211.666H1309.12M1259.18 211.666V264.334M1309.12 211.666H1359.06M1309.12 211.666V264.334M1359.06 211.666H1409M1359.06 211.666V264.334M1409 211.666V264.334M609.941 264.334H560M609.941 264.334H659.882M609.941 264.334V317M560 264.334V317M659.882 264.334H709.824M659.882 264.334V317M709.824 264.334H759.764M709.824 264.334V317M759.764 264.334H809.705M759.764 264.334V317M809.705 264.334H859.647M809.705 264.334V317M859.647 264.334H909.588M859.647 264.334V317M909.588 264.334H959.529M909.588 264.334V317M959.529 264.334H1009.47M959.529 264.334V317M1009.47 264.334H1059.41M1009.47 264.334V317M1059.41 264.334H1109.35M1059.41 264.334V317M1109.35 264.334H1159.29M1109.35 264.334V317M1159.29 264.334H1209.24M1159.29 264.334V317M1209.24 264.334H1259.18M1209.24 264.334V317M1259.18 264.334H1309.12M1259.18 264.334V317M1309.12 264.334H1359.06M1309.12 264.334V317M1359.06 264.334H1409M1359.06 264.334V317M1409 264.334V317M609.941 317H560M609.941 317H659.882M609.941 317V369.667M560 317V369.667M659.882 317H709.824M659.882 317V369.667M709.824 317H759.764M709.824 317V369.667M759.764 317H809.705M759.764 317V369.667M809.705 317H859.647M809.705 317V369.667M859.647 317H909.588M859.647 317V369.667M909.588 317H959.529M909.588 317V369.667M959.529 317H1009.47M959.529 317V369.667M1009.47 317H1059.41M1009.47 317V369.667M1059.41 317H1109.35M1059.41 317V369.667M1109.35 317H1159.29M1109.35 317V369.667M1159.29 317H1209.24M1159.29 317V369.667M1209.24 317H1259.18M1209.24 317V369.667M1259.18 317H1309.12M1259.18 317V369.667M1309.12 317H1359.06M1309.12 317V369.667M1359.06 317H1409M1359.06 317V369.667M1409 317V369.667M609.941 369.667H560M609.941 369.667H659.882M609.941 369.667V422.334M560 369.667V422.334M659.882 369.667H709.824M659.882 369.667V422.334M709.824 369.667H759.764M709.824 369.667V422.334M759.764 369.667H809.705M759.764 369.667V422.334M809.705 369.667H859.647M809.705 369.667V422.334M859.647 369.667H909.588M859.647 369.667V422.334M909.588 369.667H959.529M909.588 369.667V422.334M959.529 369.667H1009.47M959.529 369.667V422.334M1009.47 369.667H1059.41M1009.47 369.667V422.334M1059.41 369.667H1109.35M1059.41 369.667V422.334M1109.35 369.667H1159.29M1109.35 369.667V422.334M1159.29 369.667H1209.24M1159.29 369.667V422.334M1209.24 369.667H1259.18M1209.24 369.667V422.334M1259.18 369.667H1309.12M1259.18 369.667V422.334M1309.12 369.667H1359.06M1309.12 369.667V422.334M1359.06 369.667H1409M1359.06 369.667V422.334M1409 369.667V422.334M609.941 422.334H560M609.941 422.334H659.882M609.941 422.334V475M560 422.334V475M659.882 422.334H709.824M659.882 422.334V475M709.824 422.334H759.764M709.824 422.334V475M759.764 422.334H809.705M759.764 422.334V475M809.705 422.334H859.647M809.705 422.334V475M859.647 422.334H909.588M859.647 422.334V475M909.588 422.334H959.529M909.588 422.334V475M959.529 422.334H1009.47M959.529 422.334V475M1009.47 422.334H1059.41M1009.47 422.334V475M1059.41 422.334H1109.35M1059.41 422.334V475M1109.35 422.334H1159.29M1109.35 422.334V475M1159.29 422.334H1209.24M1159.29 422.334V475M1209.24 422.334H1259.18M1209.24 422.334V475M1259.18 422.334H1309.12M1259.18 422.334V475M1309.12 422.334H1359.06M1309.12 422.334V475M1359.06 422.334H1409M1359.06 422.334V475M1409 422.334V475M609.941 475H560M609.941 475H659.882M609.941 475V527.667M560 475V527.667M659.882 475H709.824M659.882 475V527.667M709.824 475H759.764M709.824 475V527.667M759.764 475H809.705M759.764 475V527.667M809.705 475H859.647M809.705 475V527.667M859.647 475H909.588M859.647 475V527.667M909.588 475H959.529M909.588 475V527.667M959.529 475H1009.47M959.529 475V527.667M1009.47 475H1059.41M1009.47 475V527.667M1059.41 475H1109.35M1059.41 475V527.667M1109.35 475H1159.29M1109.35 475V527.667M1159.29 475H1209.24M1159.29 475V527.667M1209.24 475H1259.18M1209.24 475V527.667M1259.18 475H1309.12M1259.18 475V527.667M1309.12 475H1359.06M1309.12 475V527.667M1359.06 475H1409M1359.06 475V527.667M1409 475V527.667M609.941 527.667H560M609.941 527.667H659.882M609.941 527.667V580.333M560 527.667V580.333M659.882 527.667H709.824M659.882 527.667V580.333M709.824 527.667H759.764M709.824 527.667V580.333M759.764 527.667H809.705M759.764 527.667V580.333M809.705 527.667H859.647M809.705 527.667V580.333M859.647 527.667H909.588M859.647 527.667V580.333M909.588 527.667H959.529M909.588 527.667V580.333M959.529 527.667H1009.47M959.529 527.667V580.333M1009.47 527.667H1059.41M1009.47 527.667V580.333M1059.41 527.667H1109.35M1059.41 527.667V580.333M1109.35 527.667H1159.29M1109.35 527.667V580.333M1159.29 527.667H1209.24M1159.29 527.667V580.333M1209.24 527.667H1259.18M1209.24 527.667V580.333M1259.18 527.667H1309.12M1259.18 527.667V580.333M1309.12 527.667H1359.06M1309.12 527.667V580.333M1359.06 527.667H1409M1359.06 527.667V580.333M1409 527.667V580.333M609.941 580.333H560M609.941 580.333H659.882M609.941 580.333V633M560 580.333V633H609.941M659.882 580.333H709.824M659.882 580.333V633M709.824 580.333H759.764M709.824 580.333V633M759.764 580.333H809.705M759.764 580.333V633M809.705 580.333H859.647M809.705 580.333V633M859.647 580.333H909.588M859.647 580.333V633M909.588 580.333H959.529M909.588 580.333V633M959.529 580.333H1009.47M959.529 580.333V633M1009.47 580.333H1059.41M1009.47 580.333V633M1059.41 580.333H1109.35M1059.41 580.333V633M1109.35 580.333H1159.29M1109.35 580.333V633M1159.29 580.333H1209.24M1159.29 580.333V633M1209.24 580.333H1259.18M1209.24 580.333V633M1259.18 580.333H1309.12M1259.18 580.333V633M1309.12 580.333H1359.06M1309.12 580.333V633M1359.06 580.333H1409M1359.06 580.333V633M1409 580.333V633H1359.06M609.941 633H659.882M659.882 633H709.824M709.824 633H759.764M759.764 633H809.705M809.705 633H859.647M859.647 633H909.588M909.588 633H959.529M959.529 633H1009.47M1009.47 633H1059.41M1059.41 633H1109.35M1109.35 633H1159.29M1159.29 633H1209.24M1209.24 633H1259.18M1259.18 633H1309.12M1309.12 633H1359.06" stroke="url(#paint2_radial_379_911)" stroke-opacity="0.7" stroke-width="0.946738"/>
<g filter="url(#filter1_f_379_911)">
<ellipse cx="99" cy="366.5" rx="92" ry="72.5" fill="#DDF7FC"/>
</g>
<defs>
<filter id="filter0_f_379_911" x="225.58" y="-395.29" width="2266.01" height="1104.62" filterUnits="userSpaceOnUse" color-interpolation-filters="sRGB">
<feFlood flood-opacity="0" result="BackgroundImageFix"/>
<feBlend mode="normal" in="SourceGraphic" in2="BackgroundImageFix" result="shape"/>
<feGaussianBlur stdDeviation="54.5264" result="effect1_foregroundBlur_379_911"/>
</filter>
<filter id="filter1_f_379_911" x="-102" y="185" width="402" height="363" filterUnits="userSpaceOnUse" color-interpolation-filters="sRGB">
<feFlood flood-opacity="0" result="BackgroundImageFix"/>
<feBlend mode="normal" in="SourceGraphic" in2="BackgroundImageFix" result="shape"/>
<feGaussianBlur stdDeviation="54.5" result="effect1_foregroundBlur_379_911"/>
</filter>
<linearGradient id="paint0_linear_379_911" x1="182.857" y1="762.478" x2="1441.74" y2="-66.43" gradientUnits="userSpaceOnUse">
<stop stop-color="#529FF9"/>
<stop offset="0.525" stop-color="#74D9EC"/>
<stop offset="1" stop-color="#C0F7FF"/>
</linearGradient>
<radialGradient id="paint1_radial_379_911" cx="0" cy="0" r="1" gradientUnits="userSpaceOnUse" gradientTransform="translate(376 384) rotate(145.402) scale(428.837 700.033)">
<stop stop-color="white" stop-opacity="0"/>
<stop offset="0.369" stop-color="white" stop-opacity="0"/>
<stop offset="0.509747" stop-color="white" stop-opacity="0.7"/>
<stop offset="1" stop-color="white" stop-opacity="0"/>
</radialGradient>
<radialGradient id="paint2_radial_379_911" cx="0" cy="0" r="1" gradientUnits="userSpaceOnUse" gradientTransform="translate(542.797 280.608) rotate(31.4612) scale(720.408 1292.87)">
<stop offset="0.480497" stop-color="white" stop-opacity="0"/>
<stop offset="0.515437" stop-color="white" stop-opacity="0.7"/>
<stop offset="1" stop-color="white" stop-opacity="0"/>
</radialGradient>
<clipPath id="clip0_379_911">
<path d="M1404 21C1404 9.95429 1395.05 1 1384 1H275C263.954 1 255 9.95431 255 21V654H1404V21Z" fill="white"/>
</clipPath>
</defs>
</svg>
