<svg width="1006" height="1260" viewBox="0 0 1006 1260" fill="none" xmlns="http://www.w3.org/2000/svg">
<rect width="1005" height="1259" rx="20" fill="#DDF7FC"/>
<path d="M434.772 8.47404H399.133V61.0332M434.772 8.47404V61.0332M434.772 8.47404H470.411M399.133 61.0332H434.772M399.133 61.0332V113.592M434.772 61.0332H470.411M434.772 61.0332V113.592M470.411 8.47404V61.0332M470.411 8.47404H506.051M470.411 61.0332H506.051M470.411 61.0332V113.592M434.772 113.592H399.133M434.772 113.592H470.411M434.772 113.592V166.152M399.133 113.592V166.152M506.051 8.47404V61.0332M506.051 8.47404H541.69M506.051 61.0332H541.69M506.051 61.0332V113.592M470.411 113.592H506.051M470.411 113.592V166.152M541.69 8.47404V61.0332M541.69 8.47404H577.329M541.69 61.0332H577.329M541.69 61.0332V113.592M506.051 113.592H541.69M506.051 113.592V166.152M577.329 8.47404V61.0332M577.329 8.47404H612.969M577.329 61.0332H612.969M577.329 61.0332V113.592M541.69 113.592H577.329M541.69 113.592V166.152M612.969 8.47404V61.0332M612.969 8.47404H648.608M612.969 61.0332H648.608M612.969 61.0332V113.592M577.329 113.592H612.969M577.329 113.592V166.152M648.608 8.47404V61.0332M648.608 8.47404H684.247M648.608 61.0332H684.247M648.608 61.0332V113.592M612.969 113.592H648.608M612.969 113.592V166.152M684.247 8.47404V61.0332M684.247 8.47404H719.886M684.247 61.0332H719.886M684.247 61.0332V113.592M648.608 113.592H684.247M648.608 113.592V166.152M719.886 8.47404V61.0332M719.886 8.47404H755.525M719.886 61.0332H755.525M719.886 61.0332V113.592M684.247 113.592H719.886M684.247 113.592V166.152M755.525 8.47404V61.0332M755.525 8.47404H791.165M755.525 61.0332H791.165M755.525 61.0332V113.592M719.886 113.592H755.525M719.886 113.592V166.152M791.165 8.47404V61.0332M791.165 8.47404H826.804M791.165 61.0332H826.804M791.165 61.0332V113.592M755.525 113.592H791.165M755.525 113.592V166.152M826.804 8.47404V61.0332M826.804 8.47404H862.443M826.804 61.0332H862.443M826.804 61.0332V113.592M791.165 113.592H826.804M791.165 113.592V166.152M862.443 8.47404V61.0332M862.443 8.47404H898.082M862.443 61.0332H898.082M862.443 61.0332V113.592M826.804 113.592H862.443M826.804 113.592V166.152M898.082 8.47404V61.0332M898.082 8.47404H933.721M898.082 61.0332H933.721M898.082 61.0332V113.592M862.443 113.592H898.082M862.443 113.592V166.152M933.721 8.47404V61.0332M933.721 8.47404H969.361M933.721 61.0332H969.361M933.721 61.0332V113.592M898.082 113.592H933.721M898.082 113.592V166.152M969.361 8.47404V61.0332M969.361 8.47404H1005V61.0332M969.361 61.0332H1005M969.361 61.0332V113.592M933.721 113.592H969.361M933.721 113.592V166.152M1005 61.0332V113.592M969.361 113.592H1005M969.361 113.592V166.152M1005 113.592V166.152M434.772 166.152H399.133M434.772 166.152H470.411M434.772 166.152V218.71M399.133 166.152V218.71M470.411 166.152H506.051M470.411 166.152V218.71M506.051 166.152H541.69M506.051 166.152V218.71M541.69 166.152H577.329M541.69 166.152V218.71M577.329 166.152H612.969M577.329 166.152V218.71M612.969 166.152H648.608M612.969 166.152V218.71M648.608 166.152H684.247M648.608 166.152V218.71M684.247 166.152H719.886M684.247 166.152V218.71M719.886 166.152H755.525M719.886 166.152V218.71M755.525 166.152H791.165M755.525 166.152V218.71M791.165 166.152H826.804M791.165 166.152V218.71M826.804 166.152H862.443M826.804 166.152V218.71M862.443 166.152H898.082M862.443 166.152V218.71M898.082 166.152H933.721M898.082 166.152V218.71M933.721 166.152H969.361M933.721 166.152V218.71M969.361 166.152H1005M969.361 166.152V218.71M1005 166.152V218.71M434.772 218.71H399.133M434.772 218.71H470.411M434.772 218.71V271.271M399.133 218.71V271.271M470.411 218.71H506.051M470.411 218.71V271.271M506.051 218.71H541.69M506.051 218.71V271.271M541.69 218.71H577.329M541.69 218.71V271.271M577.329 218.71H612.969M577.329 218.71V271.271M612.969 218.71H648.608M612.969 218.71V271.271M648.608 218.71H684.247M648.608 218.71V271.271M684.247 218.71H719.886M684.247 218.71V271.271M719.886 218.71H755.525M719.886 218.71V271.271M755.525 218.71H791.165M755.525 218.71V271.271M791.165 218.71H826.804M791.165 218.71V271.271M826.804 218.71H862.443M826.804 218.71V271.271M862.443 218.71H898.082M862.443 218.71V271.271M898.082 218.71H933.721M898.082 218.71V271.271M933.721 218.71H969.361M933.721 218.71V271.271M969.361 218.71H1005M969.361 218.71V271.271M1005 218.71V271.271M434.772 271.271H399.133M434.772 271.271H470.411M434.772 271.271V323.83M399.133 271.271V323.83M470.411 271.271H506.051M470.411 271.271V323.83M506.051 271.271H541.69M506.051 271.271V323.83M541.69 271.271H577.329M541.69 271.271V323.83M577.329 271.271H612.969M577.329 271.271V323.83M612.969 271.271H648.608M612.969 271.271V323.83M648.608 271.271H684.247M648.608 271.271V323.83M684.247 271.271H719.886M684.247 271.271V323.83M719.886 271.271H755.525M719.886 271.271V323.83M755.525 271.271H791.165M755.525 271.271V323.83M791.165 271.271H826.804M791.165 271.271V323.83M826.804 271.271H862.443M826.804 271.271V323.83M862.443 271.271H898.082M862.443 271.271V323.83M898.082 271.271H933.721M898.082 271.271V323.83M933.721 271.271H969.361M933.721 271.271V323.83M969.361 271.271H1005M969.361 271.271V323.83M1005 271.271V323.83M434.772 323.83H399.133M434.772 323.83H470.411M434.772 323.83V376.389M399.133 323.83V376.389M470.411 323.83H506.051M470.411 323.83V376.389M506.051 323.83H541.69M506.051 323.83V376.389M541.69 323.83H577.329M541.69 323.83V376.389M577.329 323.83H612.969M577.329 323.83V376.389M612.969 323.83H648.608M612.969 323.83V376.389M648.608 323.83H684.247M648.608 323.83V376.389M684.247 323.83H719.886M684.247 323.83V376.389M719.886 323.83H755.525M719.886 323.83V376.389M755.525 323.83H791.165M755.525 323.83V376.389M791.165 323.83H826.804M791.165 323.83V376.389M826.804 323.83H862.443M826.804 323.83V376.389M862.443 323.83H898.082M862.443 323.83V376.389M898.082 323.83H933.721M898.082 323.83V376.389M933.721 323.83H969.361M933.721 323.83V376.389M969.361 323.83H1005M969.361 323.83V376.389M1005 323.83V376.389M434.772 376.389H399.133M434.772 376.389H470.411M434.772 376.389V428.948M399.133 376.389V428.948M470.411 376.389H506.051M470.411 376.389V428.948M506.051 376.389H541.69M506.051 376.389V428.948M541.69 376.389H577.329M541.69 376.389V428.948M577.329 376.389H612.969M577.329 376.389V428.948M612.969 376.389H648.608M612.969 376.389V428.948M648.608 376.389H684.247M648.608 376.389V428.948M684.247 376.389H719.886M684.247 376.389V428.948M719.886 376.389H755.525M719.886 376.389V428.948M755.525 376.389H791.165M755.525 376.389V428.948M791.165 376.389H826.804M791.165 376.389V428.948M826.804 376.389H862.443M826.804 376.389V428.948M862.443 376.389H898.082M862.443 376.389V428.948M898.082 376.389H933.721M898.082 376.389V428.948M933.721 376.389H969.361M933.721 376.389V428.948M969.361 376.389H1005M969.361 376.389V428.948M1005 376.389V428.948M434.772 428.948H399.133M434.772 428.948H470.411M434.772 428.948V481.507M399.133 428.948V481.507M470.411 428.948H506.051M470.411 428.948V481.507M506.051 428.948H541.69M506.051 428.948V481.507M541.69 428.948H577.329M541.69 428.948V481.507M577.329 428.948H612.969M577.329 428.948V481.507M612.969 428.948H648.608M612.969 428.948V481.507M648.608 428.948H684.247M648.608 428.948V481.507M684.247 428.948H719.886M684.247 428.948V481.507M719.886 428.948H755.525M719.886 428.948V481.507M755.525 428.948H791.165M755.525 428.948V481.507M791.165 428.948H826.804M791.165 428.948V481.507M826.804 428.948H862.443M826.804 428.948V481.507M862.443 428.948H898.082M862.443 428.948V481.507M898.082 428.948H933.721M898.082 428.948V481.507M933.721 428.948H969.361M933.721 428.948V481.507M969.361 428.948H1005M969.361 428.948V481.507M1005 428.948V481.507M434.772 481.507H399.133M434.772 481.507H470.411M434.772 481.507V534.066M399.133 481.507V534.066M470.411 481.507H506.051M470.411 481.507V534.066M506.051 481.507H541.69M506.051 481.507V534.066M541.69 481.507H577.329M541.69 481.507V534.066M577.329 481.507H612.969M577.329 481.507V534.066M612.969 481.507H648.608M612.969 481.507V534.066M648.608 481.507H684.247M648.608 481.507V534.066M684.247 481.507H719.886M684.247 481.507V534.066M719.886 481.507H755.525M719.886 481.507V534.066M755.525 481.507H791.165M755.525 481.507V534.066M791.165 481.507H826.804M791.165 481.507V534.066M826.804 481.507H862.443M826.804 481.507V534.066M862.443 481.507H898.082M862.443 481.507V534.066M898.082 481.507H933.721M898.082 481.507V534.066M933.721 481.507H969.361M933.721 481.507V534.066M969.361 481.507H1005M969.361 481.507V534.066M1005 481.507V534.066M434.772 534.066H399.133M434.772 534.066H470.411M434.772 534.066V586.625M399.133 534.066V586.625M470.411 534.066H506.051M470.411 534.066V586.625M506.051 534.066H541.69M506.051 534.066V586.625M541.69 534.066H577.329M541.69 534.066V586.625M577.329 534.066H612.969M577.329 534.066V586.625M612.969 534.066H648.608M612.969 534.066V586.625M648.608 534.066H684.247M648.608 534.066V586.625M684.247 534.066H719.886M684.247 534.066V586.625M719.886 534.066H755.525M719.886 534.066V586.625M755.525 534.066H791.165M755.525 534.066V586.625M791.165 534.066H826.804M791.165 534.066V586.625M826.804 534.066H862.443M826.804 534.066V586.625M862.443 534.066H898.082M862.443 534.066V586.625M898.082 534.066H933.721M898.082 534.066V586.625M933.721 534.066H969.361M933.721 534.066V586.625M969.361 534.066H1005M969.361 534.066V586.625M1005 534.066V586.625M434.772 586.625H399.133M434.772 586.625H470.411M434.772 586.625V639.185M399.133 586.625V639.185H434.772M470.411 586.625H506.051M470.411 586.625V639.185M506.051 586.625H541.69M506.051 586.625V639.185M541.69 586.625H577.329M541.69 586.625V639.185M577.329 586.625H612.969M577.329 586.625V639.185M612.969 586.625H648.608M612.969 586.625V639.185M648.608 586.625H684.247M648.608 586.625V639.185M684.247 586.625H719.886M684.247 586.625V639.185M719.886 586.625H755.525M719.886 586.625V639.185M755.525 586.625H791.165M755.525 586.625V639.185M791.165 586.625H826.804M791.165 586.625V639.185M826.804 586.625H862.443M826.804 586.625V639.185M862.443 586.625H898.082M862.443 586.625V639.185M898.082 586.625H933.721M898.082 586.625V639.185M933.721 586.625H969.361M933.721 586.625V639.185M969.361 586.625H1005M969.361 586.625V639.185M1005 586.625V639.185H969.361M434.772 639.185H470.411M470.411 639.185H506.051M506.051 639.185H541.69M541.69 639.185H577.329M577.329 639.185H612.969M612.969 639.185H648.608M648.608 639.185H684.247M684.247 639.185H719.886M719.886 639.185H755.525M755.525 639.185H791.165M791.165 639.185H826.804M826.804 639.185H862.443M862.443 639.185H898.082M898.082 639.185H933.721M933.721 639.185H969.361" stroke="url(#paint0_radial_467_965)" stroke-opacity="0.7" stroke-width="0.946738"/>
<path d="M34.4955 778.401H7.34341V818.451M34.4955 778.401V818.451M34.4955 778.401H61.6477M7.34341 818.451H34.4955M7.34341 818.451V858.501M34.4955 818.451H61.6477M34.4955 818.451V858.501M61.6477 778.401V818.451M61.6477 778.401H88.7999M61.6477 818.451H88.7999M61.6477 818.451V858.501M34.4955 858.501H7.34341M34.4955 858.501H61.6477M34.4955 858.501V898.551M7.34341 858.501V898.551M88.7999 778.401V818.451M88.7999 778.401H115.952M88.7999 818.451H115.952M88.7999 818.451V858.501M61.6477 858.501H88.7999M61.6477 858.501V898.551M115.952 778.401V818.451M115.952 778.401H143.104M115.952 818.451H143.104M115.952 818.451V858.501M88.7999 858.501H115.952M88.7999 858.501V898.551M143.104 778.401V818.451M143.104 778.401H170.257M143.104 818.451H170.257M143.104 818.451V858.501M115.952 858.501H143.104M115.952 858.501V898.551M170.257 778.401V818.451M170.257 778.401H197.409M170.257 818.451H197.409M170.257 818.451V858.501M143.104 858.501H170.257M143.104 858.501V898.551M197.409 778.401V818.451M197.409 778.401H224.561M197.409 818.451H224.561M197.409 818.451V858.501M170.257 858.501H197.409M170.257 858.501V898.551M224.561 778.401V818.451M224.561 778.401H251.713M224.561 818.451H251.713M224.561 818.451V858.501M197.409 858.501H224.561M197.409 858.501V898.551M251.713 778.401V818.451M251.713 778.401H278.865M251.713 818.451H278.865M251.713 818.451V858.501M224.561 858.501H251.713M224.561 858.501V898.551M278.865 778.401V818.451M278.865 778.401H306.017M278.865 818.451H306.017M278.865 818.451V858.501M251.713 858.501H278.865M251.713 858.501V898.551M306.017 778.401V818.451M306.017 778.401H333.169M306.017 818.451H333.169M306.017 818.451V858.501M278.865 858.501H306.017M278.865 858.501V898.551M333.169 778.401V818.451M333.169 778.401H360.321M333.169 818.451H360.321M333.169 818.451V858.501M306.017 858.501H333.169M306.017 858.501V898.551M360.321 778.401V818.451M360.321 778.401H387.473M360.321 818.451H387.473M360.321 818.451V858.501M333.169 858.501H360.321M333.169 858.501V898.551M387.473 778.401V818.451M387.473 778.401H414.625M387.473 818.451H414.625M387.473 818.451V858.501M360.321 858.501H387.473M360.321 858.501V898.551M414.625 778.401V818.451M414.625 778.401H441.778M414.625 818.451H441.778M414.625 818.451V858.501M387.473 858.501H414.625M387.473 858.501V898.551M441.778 778.401V818.451M441.778 778.401H468.93V818.451M441.778 818.451H468.93M441.778 818.451V858.501M414.625 858.501H441.778M414.625 858.501V898.551M468.93 818.451V858.501M441.778 858.501H468.93M441.778 858.501V898.551M468.93 858.501V898.551M34.4955 898.551H7.34341M34.4955 898.551H61.6477M34.4955 898.551V938.6M7.34341 898.551V938.6M61.6477 898.551H88.7999M61.6477 898.551V938.6M88.7999 898.551H115.952M88.7999 898.551V938.6M115.952 898.551H143.104M115.952 898.551V938.6M143.104 898.551H170.257M143.104 898.551V938.6M170.257 898.551H197.409M170.257 898.551V938.6M197.409 898.551H224.561M197.409 898.551V938.6M224.561 898.551H251.713M224.561 898.551V938.6M251.713 898.551H278.865M251.713 898.551V938.6M278.865 898.551H306.017M278.865 898.551V938.6M306.017 898.551H333.169M306.017 898.551V938.6M333.169 898.551H360.321M333.169 898.551V938.6M360.321 898.551H387.473M360.321 898.551V938.6M387.473 898.551H414.625M387.473 898.551V938.6M414.625 898.551H441.778M414.625 898.551V938.6M441.778 898.551H468.93M441.778 898.551V938.6M468.93 898.551V938.6M34.4955 938.6H7.34341M34.4955 938.6H61.6477M34.4955 938.6V978.651M7.34341 938.6V978.651M61.6477 938.6H88.7999M61.6477 938.6V978.651M88.7999 938.6H115.952M88.7999 938.6V978.651M115.952 938.6H143.104M115.952 938.6V978.651M143.104 938.6H170.257M143.104 938.6V978.651M170.257 938.6H197.409M170.257 938.6V978.651M197.409 938.6H224.561M197.409 938.6V978.651M224.561 938.6H251.713M224.561 938.6V978.651M251.713 938.6H278.865M251.713 938.6V978.651M278.865 938.6H306.017M278.865 938.6V978.651M306.017 938.6H333.169M306.017 938.6V978.651M333.169 938.6H360.321M333.169 938.6V978.651M360.321 938.6H387.473M360.321 938.6V978.651M387.473 938.6H414.625M387.473 938.6V978.651M414.625 938.6H441.778M414.625 938.6V978.651M441.778 938.6H468.93M441.778 938.6V978.651M468.93 938.6V978.651M34.4955 978.651H7.34341M34.4955 978.651H61.6477M34.4955 978.651V1018.7M7.34341 978.651V1018.7M61.6477 978.651H88.7999M61.6477 978.651V1018.7M88.7999 978.651H115.952M88.7999 978.651V1018.7M115.952 978.651H143.104M115.952 978.651V1018.7M143.104 978.651H170.257M143.104 978.651V1018.7M170.257 978.651H197.409M170.257 978.651V1018.7M197.409 978.651H224.561M197.409 978.651V1018.7M224.561 978.651H251.713M224.561 978.651V1018.7M251.713 978.651H278.865M251.713 978.651V1018.7M278.865 978.651H306.017M278.865 978.651V1018.7M306.017 978.651H333.169M306.017 978.651V1018.7M333.169 978.651H360.321M333.169 978.651V1018.7M360.321 978.651H387.473M360.321 978.651V1018.7M387.473 978.651H414.625M387.473 978.651V1018.7M414.625 978.651H441.778M414.625 978.651V1018.7M441.778 978.651H468.93M441.778 978.651V1018.7M468.93 978.651V1018.7M34.4955 1018.7H7.34341M34.4955 1018.7H61.6477M34.4955 1018.7V1058.75M7.34341 1018.7V1058.75M61.6477 1018.7H88.7999M61.6477 1018.7V1058.75M88.7999 1018.7H115.952M88.7999 1018.7V1058.75M115.952 1018.7H143.104M115.952 1018.7V1058.75M143.104 1018.7H170.257M143.104 1018.7V1058.75M170.257 1018.7H197.409M170.257 1018.7V1058.75M197.409 1018.7H224.561M197.409 1018.7V1058.75M224.561 1018.7H251.713M224.561 1018.7V1058.75M251.713 1018.7H278.865M251.713 1018.7V1058.75M278.865 1018.7H306.017M278.865 1018.7V1058.75M306.017 1018.7H333.169M306.017 1018.7V1058.75M333.169 1018.7H360.321M333.169 1018.7V1058.75M360.321 1018.7H387.473M360.321 1018.7V1058.75M387.473 1018.7H414.625M387.473 1018.7V1058.75M414.625 1018.7H441.778M414.625 1018.7V1058.75M441.778 1018.7H468.93M441.778 1018.7V1058.75M468.93 1018.7V1058.75M34.4955 1058.75H7.34341M34.4955 1058.75H61.6477M34.4955 1058.75V1098.8M7.34341 1058.75V1098.8M61.6477 1058.75H88.7999M61.6477 1058.75V1098.8M88.7999 1058.75H115.952M88.7999 1058.75V1098.8M115.952 1058.75H143.104M115.952 1058.75V1098.8M143.104 1058.75H170.257M143.104 1058.75V1098.8M170.257 1058.75H197.409M170.257 1058.75V1098.8M197.409 1058.75H224.561M197.409 1058.75V1098.8M224.561 1058.75H251.713M224.561 1058.75V1098.8M251.713 1058.75H278.865M251.713 1058.75V1098.8M278.865 1058.75H306.017M278.865 1058.75V1098.8M306.017 1058.75H333.169M306.017 1058.75V1098.8M333.169 1058.75H360.321M333.169 1058.75V1098.8M360.321 1058.75H387.473M360.321 1058.75V1098.8M387.473 1058.75H414.625M387.473 1058.75V1098.8M414.625 1058.75H441.778M414.625 1058.75V1098.8M441.778 1058.75H468.93M441.778 1058.75V1098.8M468.93 1058.75V1098.8M34.4955 1098.8H7.34341M34.4955 1098.8H61.6477M34.4955 1098.8V1138.85M7.34341 1098.8V1138.85M61.6477 1098.8H88.7999M61.6477 1098.8V1138.85M88.7999 1098.8H115.952M88.7999 1098.8V1138.85M115.952 1098.8H143.104M115.952 1098.8V1138.85M143.104 1098.8H170.257M143.104 1098.8V1138.85M170.257 1098.8H197.409M170.257 1098.8V1138.85M197.409 1098.8H224.561M197.409 1098.8V1138.85M224.561 1098.8H251.713M224.561 1098.8V1138.85M251.713 1098.8H278.865M251.713 1098.8V1138.85M278.865 1098.8H306.017M278.865 1098.8V1138.85M306.017 1098.8H333.169M306.017 1098.8V1138.85M333.169 1098.8H360.321M333.169 1098.8V1138.85M360.321 1098.8H387.473M360.321 1098.8V1138.85M387.473 1098.8H414.625M387.473 1098.8V1138.85M414.625 1098.8H441.778M414.625 1098.8V1138.85M441.778 1098.8H468.93M441.778 1098.8V1138.85M468.93 1098.8V1138.85M34.4955 1138.85H7.34341M34.4955 1138.85H61.6477M34.4955 1138.85V1178.9M7.34341 1138.85V1178.9M61.6477 1138.85H88.7999M61.6477 1138.85V1178.9M88.7999 1138.85H115.952M88.7999 1138.85V1178.9M115.952 1138.85H143.104M115.952 1138.85V1178.9M143.104 1138.85H170.257M143.104 1138.85V1178.9M170.257 1138.85H197.409M170.257 1138.85V1178.9M197.409 1138.85H224.561M197.409 1138.85V1178.9M224.561 1138.85H251.713M224.561 1138.85V1178.9M251.713 1138.85H278.865M251.713 1138.85V1178.9M278.865 1138.85H306.017M278.865 1138.85V1178.9M306.017 1138.85H333.169M306.017 1138.85V1178.9M333.169 1138.85H360.321M333.169 1138.85V1178.9M360.321 1138.85H387.473M360.321 1138.85V1178.9M387.473 1138.85H414.625M387.473 1138.85V1178.9M414.625 1138.85H441.778M414.625 1138.85V1178.9M441.778 1138.85H468.93M441.778 1138.85V1178.9M468.93 1138.85V1178.9M34.4955 1178.9H7.34341M34.4955 1178.9H61.6477M34.4955 1178.9V1218.95M7.34341 1178.9V1218.95M61.6477 1178.9H88.7999M61.6477 1178.9V1218.95M88.7999 1178.9H115.952M88.7999 1178.9V1218.95M115.952 1178.9H143.104M115.952 1178.9V1218.95M143.104 1178.9H170.257M143.104 1178.9V1218.95M170.257 1178.9H197.409M170.257 1178.9V1218.95M197.409 1178.9H224.561M197.409 1178.9V1218.95M224.561 1178.9H251.713M224.561 1178.9V1218.95M251.713 1178.9H278.865M251.713 1178.9V1218.95M278.865 1178.9H306.017M278.865 1178.9V1218.95M306.017 1178.9H333.169M306.017 1178.9V1218.95M333.169 1178.9H360.321M333.169 1178.9V1218.95M360.321 1178.9H387.473M360.321 1178.9V1218.95M387.473 1178.9H414.625M387.473 1178.9V1218.95M414.625 1178.9H441.778M414.625 1178.9V1218.95M441.778 1178.9H468.93M441.778 1178.9V1218.95M468.93 1178.9V1218.95M34.4955 1218.95H7.34341M34.4955 1218.95H61.6477M34.4955 1218.95V1259M7.34341 1218.95V1259H34.4955M61.6477 1218.95H88.7999M61.6477 1218.95V1259M88.7999 1218.95H115.952M88.7999 1218.95V1259M115.952 1218.95H143.104M115.952 1218.95V1259M143.104 1218.95H170.257M143.104 1218.95V1259M170.257 1218.95H197.409M170.257 1218.95V1259M197.409 1218.95H224.561M197.409 1218.95V1259M224.561 1218.95H251.713M224.561 1218.95V1259M251.713 1218.95H278.865M251.713 1218.95V1259M278.865 1218.95H306.017M278.865 1218.95V1259M306.017 1218.95H333.169M306.017 1218.95V1259M333.169 1218.95H360.321M333.169 1218.95V1259M360.321 1218.95H387.473M360.321 1218.95V1259M387.473 1218.95H414.625M387.473 1218.95V1259M414.625 1218.95H441.778M414.625 1218.95V1259M441.778 1218.95H468.93M441.778 1218.95V1259M468.93 1218.95V1259H441.778M34.4955 1259H61.6477M61.6477 1259H88.7999M88.7999 1259H115.952M115.952 1259H143.104M143.104 1259H170.257M170.257 1259H197.409M197.409 1259H224.561M224.561 1259H251.713M251.713 1259H278.865M278.865 1259H306.017M306.017 1259H333.169M333.169 1259H360.321M360.321 1259H387.473M387.473 1259H414.625M414.625 1259H441.778" stroke="url(#paint1_radial_467_965)" stroke-opacity="0.7" stroke-width="0.946738"/>
<g clip-path="url(#clip0_467_965)">
<g filter="url(#filter0_f_467_965)">
<path fill-rule="evenodd" clip-rule="evenodd" d="M160.384 296.557C192.511 168.386 231.653 12.2246 467.229 -107.865C731.098 -242.377 845.93 -461.201 870.362 -553.801H1081.09C1152.82 -484.044 1227.34 -335.607 1113.58 -182.232H1121.22C1200.67 -104.928 1226.72 18.8372 925.704 182.372C550.23 386.355 537.486 422.479 370.644 895.383L369.576 898.41C235.29 1279.03 265.458 1020.73 317.042 787.221C321.334 771.622 326.146 750.549 331.855 725.552C366.544 573.654 434.336 276.809 619.516 182.372C708.497 136.995 776.74 79.8809 827.614 23.1226C729.264 70.094 650.496 96.3395 584.552 118.311L584.549 118.312C391.173 182.742 308.066 210.432 164.818 616.289C0.511074 1081.82 85.6684 627.011 148.785 341.417C152.769 326.941 156.526 311.951 160.384 296.557ZM1284.73 298.487C1069.08 408.466 954.428 656.716 924.06 767.093C872.476 1000.6 802.879 1372.46 937.164 991.833C1063.97 632.422 1190.41 577.942 1406.88 484.674C1476.97 454.475 1556.5 420.21 1648.53 370.212C1949.55 206.679 1865.89 11.1869 1786.43 -66.1172H1614.21C1594.24 9.59233 1500.39 188.508 1284.73 298.487ZM621.595 657.666C641.265 586.191 715.523 425.436 855.201 354.219C994.88 283.001 1055.67 167.145 1068.6 118.118H1180.15C1231.61 168.177 1285.8 294.768 1090.83 400.665C1031.22 433.041 979.711 455.229 934.315 474.784C794.109 535.181 712.211 570.46 630.083 803.195C543.107 1049.67 588.184 808.873 621.595 657.666Z" fill="url(#paint2_linear_467_965)"/>
</g>
</g>
<defs>
<filter id="filter0_f_467_965" x="-39.3994" y="-662.853" width="2009.35" height="1927.32" filterUnits="userSpaceOnUse" color-interpolation-filters="sRGB">
<feFlood flood-opacity="0" result="BackgroundImageFix"/>
<feBlend mode="normal" in="SourceGraphic" in2="BackgroundImageFix" result="shape"/>
<feGaussianBlur stdDeviation="54.5264" result="effect1_foregroundBlur_467_965"/>
</filter>
<radialGradient id="paint0_radial_467_965" cx="0" cy="0" r="1" gradientUnits="userSpaceOnUse" gradientTransform="translate(466.452 -19.6818) rotate(62.2572) scale(771.059 1045.29)">
<stop offset="0.123834" stop-color="white" stop-opacity="0"/>
<stop offset="0.515437" stop-color="white" stop-opacity="0.7"/>
<stop offset="1" stop-color="white" stop-opacity="0"/>
</radialGradient>
<radialGradient id="paint1_radial_467_965" cx="0" cy="0" r="1" gradientUnits="userSpaceOnUse" gradientTransform="translate(58.6309 756.946) rotate(62.2614) scale(587.521 796.399)">
<stop offset="0.123834" stop-color="white" stop-opacity="0"/>
<stop offset="0.515437" stop-color="white" stop-opacity="0.7"/>
<stop offset="1" stop-color="white" stop-opacity="0"/>
</radialGradient>
<linearGradient id="paint2_linear_467_965" x1="-63.1015" y1="1468.15" x2="1386.09" y2="1035.26" gradientUnits="userSpaceOnUse">
<stop stop-color="#529FF9"/>
<stop offset="0.525" stop-color="#74D9EC"/>
<stop offset="1" stop-color="#C0F7FF"/>
</linearGradient>
<clipPath id="clip0_467_965">
<path d="M1005 20C1005 8.95434 996.046 0 985 0H20C8.95431 0 0 8.9543 0 20V1259H1005V20Z" fill="white"/>
</clipPath>
</defs>
</svg>
